<svg xmlns="http://www.w3.org/2000/svg" width="1228" height="1228" fill="none"><path fill="#3A9EE8" d="M661 390c.65.57 1.31 1.14 1.98 1.73 20.6 19.08 32.96 49.25 34.18 76.98.89 33.06-12.73 62.65-34.16 87.29-.72.83-1.44 1.66-2.18 2.52-8.89 10.05-18.3 19.15-28.82 27.48-1.1.91-2.19 1.82-3.29 2.73-13.89 11.51-29.02 21.11-44.46 30.4C546.81 641.66 513.6 670.34 502 714c-7.24 31.92 1.5 67.37 18.44 94.81 1.16 1.75 2.35 3.47 3.56 5.19.68.96 1.35 1.92 2.05 2.91 4.73 6.51 9.86 12.45 15.37 18.3 2.64 2.86 5.12 5.79 7.58 8.79-19.41-2.64-40.83-24.92-52.18-39.72-22.87-30.72-34.42-68.35-29-106.65 5.11-30.53 20.19-58.15 41.18-80.63a719.35 719.35 0 0 0 3.62-4.19c5.68-6.48 11.74-12.05 18.47-17.45 1.86-1.51 3.7-3.05 5.51-4.63 7.37-6.4 15.23-11.81 23.32-17.26 6.86-4.62 13.56-9.37 20.08-14.47.82-.64 1.64-1.28 2.48-1.93 2.53-2 5.03-4.03 7.52-6.07.98-.8 1.97-1.6 2.98-2.42 21.86-17.93 44.16-40.52 48.77-69.63 1.39-16.23-3.95-32.63-14.33-45.19C611.79 415.81 591.6 406.9 568 405c-50.95-2.84-105.44 21.57-143.16 54.73-1.84 1.67-3.66 3.35-5.47 5.06-2.03 1.9-4.11 3.68-6.25 5.46-31.05 27.2-50.71 65.18-66.12 102.75h-1c-.94-54.73 28.48-109.03 65.48-147.67 6.78-6.96 13.81-13.4 21.52-19.33.56-.45 1.13-.89 1.71-1.35C465.12 380.63 500.19 364.92 538 357c1.28-.27 2.55-.54 3.87-.82 43.76-7.37 86.39 4.39 119.13 33.82Z"/><path fill="#8750F6" d="M686 380c16.24 7.66 29.41 17.07 42 30 .49.45.99.9 1.5 1.36 21.79 20.33 36.4 55.01 37.62 84.62 1.09 45.14-14.23 82.43-45.18 115.2-9.38 9.8-18.99 18.81-29.94 26.82-1.17.87-2.33 1.74-3.5 2.62-5.37 4-10.81 7.92-16.33 11.73-10.12 6.98-19.91 14.17-29.32 22.09-1.82 1.53-3.65 3.04-5.49 4.55-19.25 15.91-42 38.97-44.58 65.21-1.03 19.68 4.74 36.17 17.72 51.24 14.71 15.09 36.08 23.2 56.98 23.76 49.86.64 97.78-19.47 136.52-50.2.54-.43 1.09-.85 1.65-1.29 15.53-12.29 29.74-26.67 41.35-42.71.87-1.17 1.73-2.34 2.6-3.52 14.79-20.15 26.21-42.27 35.4-65.48l1.21-3.02c.26-.66.52-1.31.79-1.98h1c2.04 32.34-11.04 65.95-26 94l-1.03 1.97C844.5 778.12 819.9 805.88 791 826c-.64.45-1.27.9-1.93 1.36-27.45 19.27-58.19 32.95-91.07 39.64-1.68.35-1.68.35-3.39.71-30.14 5.45-63.21 2.32-90.61-11.71-.6-.31-1.21-.62-1.83-.93-29.21-15.19-50.33-40.46-60.34-71.81-1.64-5.36-3.07-10.7-3.83-16.26-.11-.79-.22-1.58-.33-2.4-3.94-33.29 8.05-63.83 28.07-89.82 2.95-3.63 6.03-7.1 9.21-10.54 1.77-1.93 3.45-3.9 5.11-5.93 2.66-3.12 5.59-5.75 8.72-8.39 1.52-1.32 3.01-2.67 4.47-4.06 17.03-16.11 37.01-28.67 56.92-40.88C686.52 582.66 721.51 554.4 732 511c8.16-34.62-2.79-69.64-20.75-99.12-6.62-10.56-14.83-19.93-23.92-28.43C686 382 686 382 686 380Z"/><path fill="#8F48F7" d="M1133.22 873.16c2.29.69 4.5 1.37 6.71 2.28 1.07.44 1.07.44 2.16.88.75.32 1.51.64 2.29.96.8.33 1.6.66 2.43 1 2.58 1.07 5.17 2.14 7.75 3.22l5.31 2.19c12.08 5.01 24.14 10.08 36.13 15.31-1.38 3.09-2.95 5.2-5.34 7.58-.69.7-1.38 1.39-2.09 2.11-.76.75-1.51 1.5-2.29 2.27-.8.8-1.59 1.6-2.42 2.42-2.64 2.65-5.28 5.28-7.93 7.92l-5.52 5.52c-3.86 3.85-7.72 7.71-11.58 11.56-4.46 4.43-8.9 8.88-13.35 13.32-4.29 4.29-8.58 8.58-12.87 12.86-1.82 1.82-3.64 3.63-5.46 5.45-2.55 2.55-5.1 5.09-7.66 7.64-.74.74-1.48 1.49-2.25 2.26-.71.7-1.41 1.4-2.14 2.12-.6.6-1.21 1.2-1.83 1.82-1.94 1.84-3.93 3.58-5.95 5.33-4.72 4.11-9.13 8.5-13.54 12.94l-2.71 2.71c-2.47 2.47-4.93 4.94-7.39 7.41-2.66 2.67-5.32 5.34-7.99 8.01-4.6 4.62-9.21 9.24-13.82 13.86-7.28 7.3-14.56 14.6-21.84 21.89-2.5 2.5-4.99 5-7.48 7.5-.63.62-1.25 1.25-1.89 1.89-7.08 7.09-14.16 14.18-21.24 21.28l-1.96 1.96c-10.499 10.53-20.999 21.05-31.499 31.58a28273.497 28273.497 0 0 1-32.36 32.43c-6.65 6.66-13.3 13.33-19.95 20-4.54 4.57-9.1 9.13-13.65 13.68-2.63 2.63-5.26 5.27-7.88 7.91-2.84 2.85-5.69 5.7-8.54 8.54l-2.53 2.56c-.76.75-1.52 1.51-2.3 2.28-.66.66-1.31 1.32-1.99 2-1.76 1.39-1.76 1.39-4.76 1.39-2.6-6.42-5.19-12.84-7.79-19.26-.88-2.17-1.76-4.35-2.64-6.53-.43-1.05-.85-2.1-1.29-3.18-.42-1.05-.84-2.09-1.28-3.16-.84-2.08-1.67-4.15-2.51-6.23-1.783-4.46-3.61-8.91-5.48-13.34l-.88-2.09c-.75-1.77-1.5-3.54-2.26-5.3-1-3.35-.95-4.61.13-7.91 1.66-2.04 3.28-3.81 5.15-5.64.54-.55 1.09-1.09 1.65-1.66 1.82-1.83 3.65-3.64 5.49-5.46 1.3-1.31 2.61-2.62 3.92-3.93 3.55-3.56 7.12-7.1 10.69-10.65 3.73-3.71 7.45-7.43 11.18-11.16 6.26-6.25 12.53-12.5 18.81-18.74 8.04-8 16.06-16.01 24.09-24.03 6.91-6.9 13.82-13.8 20.74-20.69l4.44-4.44c4.23-4.21 8.46-8.43 12.69-12.64 1.28-1.28 2.56-2.55 3.84-3.82 10.85-10.83 10.85-10.83 15.34-14.66 5.899-5.05 11.259-10.7 16.719-16.22 1.27-1.29 2.54-2.57 3.81-3.85 2.73-2.75 5.45-5.5 8.18-8.26 4.3-4.35 8.62-8.69 12.93-13.03.73-.73 1.46-1.47 2.21-2.22 1.5-1.5 2.99-3 4.48-4.5 10.04-10.1 20.07-20.2 30.08-30.32 6.77-6.84 13.55-13.67 20.35-20.48 3.59-3.61 7.17-7.22 10.74-10.84 3.36-3.41 6.72-6.79 10.1-10.17 1.24-1.24 2.48-2.49 3.7-3.74 1.67-1.71 3.37-3.4 5.07-5.08.48-.51.96-1.01 1.46-1.53 2.6-2.52 3.68-3.26 7.36-3.08Z"/><path fill="#9146F8" d="M899 32c4.52.87 6.88 3.46 10.01 6.65.6.59 1.2 1.19 1.82 1.8 2.01 2 4.01 4.02 6.01 6.03 1.43 1.44 2.87 2.87 4.31 4.31 3.91 3.9 7.81 7.82 11.71 11.73 4.08 4.1 8.17 8.19 12.26 12.28 6.87 6.87 13.74 13.76 20.6 20.64 8.8 8.83 17.6 17.64 26.41 26.46 7.58 7.58 15.16 15.17 22.74 22.76 2.43 2.43 4.86 4.87 7.29 7.3 3.83 3.84 7.66 7.67 11.48 11.51 1.4 1.41 2.8 2.81 4.21 4.22 1.92 1.92 3.84 3.85 5.75 5.77.83.83.83.83 1.67 1.66 2.84 2.87 5.56 5.81 8.21 8.86 3.27 3.78 6.7 7.34 10.25 10.85.64.64 1.27 1.28 1.93 1.94l6.36 6.33c1.53 1.53 3.06 3.05 4.59 4.58 3.28 3.27 6.55 6.54 9.84 9.81 5.18 5.16 10.36 10.33 15.54 15.5 14.72 14.7 29.44 29.39 44.17 44.08 8.15 8.12 16.29 16.24 24.42 24.37 5.16 5.14 10.31 10.28 15.47 15.42 3.2 3.19 6.39 6.38 9.59 9.57 1.48 1.48 2.97 2.97 4.46 4.45 2.03 2.01 4.05 4.03 6.06 6.05l1.82 1.79c4.02 4.05 4.02 4.05 4.02 6.28-2.31.97-4.62 1.93-6.93 2.89-.72.31-1.45.61-2.2.92-4.03 1.69-8.07 3.37-12.1 5.05-.82.34-1.64.68-2.49 1.03-1.66.69-3.33 1.38-5 2.07-4.54 1.89-9.07 3.79-13.59 5.72-1.89.81-3.79 1.61-5.68 2.41-2.3.96-4.59 1.94-6.88 2.93-1.02.43-2.05.86-3.1 1.3-.88.37-1.76.75-2.67 1.14-3.03.69-3.73.15-6.36-1.46-1.63-1.45-3.2-2.95-4.74-4.49-.46-.47-.93-.93-1.41-1.4-1.55-1.56-3.11-3.12-4.66-4.68-1.12-1.12-2.25-2.24-3.37-3.37-3.1-3.09-6.19-6.19-9.28-9.29-3.33-3.34-6.67-6.67-10-10.01l-17.34-17.34c-8.35-8.37-16.7-16.73-25.06-25.09-13.55-13.56-27.1-27.12-40.65-40.69-13.17-13.18-26.33-26.36-39.5-39.54l-2.46-2.46c-4.07-4.07-8.14-8.15-12.21-12.22C940.54 164.62 906.77 130.81 873 97c.95-2.54 1.9-5.08 2.85-7.63.27-.71.53-1.42.81-2.16 2.23-5.96 4.6-11.85 7.05-17.73.41-.99.82-1.98 1.24-3 1.29-3.1 2.57-6.2 3.86-9.29 1.31-3.14 2.61-6.29 3.92-9.43.8-1.94 1.61-3.88 2.41-5.82.36-.87.73-1.74 1.1-2.63.31-.76.63-1.53.96-2.31.66-1.64 1.24-3.32 1.8-5Z"/><path fill="#10C9E0" d="M2 379c1.43.47 2.86.94 4.29 1.42.8.26 1.59.52 2.41.79 3.01 1.04 5.91 2.26 8.83 3.54 1.81.79 1.81.79 3.66 1.6l3.75 1.65c2.42 1.06 4.85 2.13 7.27 3.19.6.26 1.2.52 1.81.79 6.82 2.97 13.68 5.86 20.53 8.76 1.2.51 2.4 1.01 3.64 1.54 2.93 1.24 5.87 2.48 8.81 3.72.03 25.83.05 51.67.06 77.5v2.99c.03 71.94-.19 143.88-.56 215.82-.01 1.17-.01 2.33-.02 3.54-.15 29.71-.31 59.43-.48 89.15-6.24 2.58-12.48 5.16-18.72 7.73-2.11.88-4.23 1.75-6.34 2.62-1.02.43-2.04.85-3.09 1.28l-3.08 1.27c-2.03.84-4.05 1.68-6.08 2.51a8193.013 8193.013 0 0 0-16.32 6.77A572.2 572.2 0 0 0 8 819.02C3.22 821 3.22 821 1 821 .97 776.86.95 732.72.94 688.58v-7.53C.89 517.39.89 517.39 1.5 437.44c.01-.79.01-1.59.02-2.4.14-18.68.3-37.36.48-56.04Z"/><path fill="#5C7BEE" d="M405 0h442c-6.9 18.4-6.9 18.4-10.16 26-.36.84-.72 1.68-1.09 2.55-1.12 2.63-2.25 5.26-3.37 7.89-.76 1.78-1.52 3.55-2.28 5.33-3.31 7.77-6.67 15.51-10.1 23.23H431c-7.43-17.82-7.43-17.82-15-36-5.1-11.93-5.1-11.93-10.23-23.84C405 3 405 3 405 0Z"/><path fill="#884FF6" d="M860 127c3.5 1.5 5.76 3.51 8.44 6.2.89.88 1.78 1.77 2.7 2.68.98.99 1.96 1.98 2.95 2.97 1.04 1.04 2.09 2.09 3.14 3.13 2.88 2.88 5.75 5.76 8.62 8.64 3.1 3.11 6.21 6.21 9.31 9.31 5.37 5.38 10.75 10.75 16.12 16.14 7.76 7.78 15.53 15.55 23.3 23.33 12.61 12.61 25.21 25.22 37.82 37.84 12.24 12.26 24.48 24.52 36.73 36.78.75.75 1.51 1.51 2.28 2.29 3.79 3.78 7.58 7.57 11.36 11.36 31.42 31.44 62.83 62.88 94.23 94.33-1 3-1 3-2.9 4.09-.83.33-1.66.66-2.52 1.01-.94.38-1.89.77-2.86 1.16l-3.11 1.23c-1.06.43-2.12.86-3.21 1.3-3.4 1.37-6.81 2.73-10.21 4.09-2.26.9-4.51 1.81-6.77 2.72-4.19 1.69-8.38 3.37-12.58 5.04-.95.38-1.91.76-2.89 1.15-2.08.85-4.13 1.74-6.18 2.65-1.06.47-2.11.94-3.2 1.42-1.42.65-1.42.65-2.87 1.31-3.16.97-4.56.77-7.7-.17-2.01-1.5-2.01-1.5-3.99-3.48-.76-.75-1.53-1.5-2.31-2.27-.83-.84-1.66-1.67-2.51-2.53-.89-.88-1.77-1.76-2.69-2.66-2.46-2.44-4.91-4.89-7.36-7.35-2.64-2.64-5.29-5.28-7.94-7.91-5.2-5.17-10.38-10.34-15.55-15.52-4.21-4.21-8.42-8.41-12.63-12.61-13.24-13.21-26.47-26.43-39.69-39.65-10.43-10.44-20.89-20.87-31.35-31.28-10.73-10.69-21.46-21.39-32.17-32.11-6.01-6.01-12.03-12.03-18.07-18.02-5.13-5.11-10.26-10.23-15.36-15.36-2.61-2.62-5.22-5.24-7.85-7.84-2.85-2.81-5.67-5.65-8.48-8.5l-2.55-2.49c-5.49-5.61-5.49-5.61-5.54-9.85.34-.85.68-1.7 1.04-2.57.22-.68.44-1.36.67-2.06.25-.62.51-1.23.77-1.87.29-.71.58-1.42.88-2.16.32-.75.64-1.51.96-2.29.5-1.2.5-1.2 1-2.43 1.07-2.59 2.14-5.17 3.22-7.75l2.19-5.31c5.01-12.08 10.08-24.14 15.31-36.13Z"/><path fill="#30A9E5" d="M385 110c3 1 3 1 4.45 3.9.52 1.3 1.02 2.6 1.52 3.9.28.71.55 1.41.84 2.14.91 2.3 1.8 4.62 2.69 6.94.93 2.39 1.87 4.78 2.81 7.17.63 1.61 1.26 3.23 1.89 4.85 2.01 5.13 4.07 10.22 6.2 15.29.26.63.52 1.25.79 1.89 1.22 2.92 2.45 5.83 3.7 8.74.64 1.54.64 1.54 1.29 3.11l1.15 2.69c.77 2.72.59 3.75-.33 6.38-1.23 1.6-1.23 1.6-2.8 3.17-.6.6-1.19 1.2-1.8 1.82-.66.65-1.32 1.29-2 1.96-.69.69-1.38 1.39-2.09 2.1-2.28 2.29-4.58 4.57-6.88 6.84-1.59 1.6-3.18 3.19-4.78 4.78-3.34 3.34-6.69 6.68-10.05 10.01-4.28 4.26-8.56 8.52-12.83 12.79l-12.27 12.24c-.78.77-1.55 1.54-2.35 2.34-2.21 2.2-4.43 4.41-6.65 6.61-.64.64-1.28 1.28-1.95 1.94-3.01 2.99-6.06 5.87-9.28 8.63-5.63 4.87-10.82 10.2-16.07 15.47l-3.51 3.51-7.51 7.54c-3.97 3.98-7.94 7.95-11.91 11.93-8.43 8.44-16.85 16.88-25.27 25.32-9.09 9.12-18.19 18.23-27.29 27.34-3.94 3.95-7.88 7.9-11.81 11.85-2.46 2.46-4.92 4.92-7.37 7.38-1.14 1.13-2.27 2.27-3.4 3.4-5.35 5.39-10.71 10.71-16.5 15.63-2.51 2.16-4.81 4.48-7.13 6.84-.86.86-1.71 1.73-2.59 2.62L194 393c-6.85-2.19-13.46-4.75-20.1-7.53-1.55-.64-1.55-.64-3.13-1.3-2.17-.91-4.35-1.81-6.52-2.72-3.3-1.38-6.61-2.76-9.92-4.14-2.12-.88-4.24-1.76-6.37-2.65-.98-.41-1.96-.81-2.97-1.23-5.44-2.29-10.74-4.72-15.99-7.43 1.57-4 4.18-6.19 7.37-9 6.45-5.78 12.59-11.83 18.7-17.97 1.15-1.15 2.3-2.31 3.45-3.46 2.45-2.45 4.91-4.91 7.36-7.37 3.88-3.9 7.76-7.79 11.65-11.68 8.24-8.25 16.48-16.51 24.72-24.77 8.91-8.93 17.82-17.87 26.74-26.79 3.86-3.86 7.71-7.73 11.56-11.6l7.21-7.21c1.11-1.11 2.21-2.22 3.32-3.33 5.14-5.17 10.3-10.22 15.83-14.96 4.75-4.23 9.16-8.81 13.65-13.3 1.14-1.15 2.28-2.29 3.43-3.43 3.08-3.09 6.16-6.18 9.24-9.26 3.23-3.24 6.46-6.47 9.69-9.7 6.11-6.11 12.22-12.22 18.32-18.34 6.95-6.96 13.91-13.92 20.87-20.89 14.3-14.31 28.59-28.62 42.89-42.94Z"/><path fill="#9A3DF9" d="M1133 443v364c-10.12-3.37-10.12-3.37-13.96-5.01-.86-.36-1.73-.72-2.61-1.1-1.35-.58-1.35-.58-2.73-1.16-.96-.41-1.92-.81-2.9-1.23-3.04-1.29-6.08-2.58-9.11-3.87-3.03-1.29-6.05-2.57-9.08-3.86-1.87-.79-3.75-1.59-5.62-2.38-4.77-2.03-9.54-4.04-14.32-6.03-1.6-.67-1.6-.67-3.23-1.35L1067 780c-.05-31.22.07-62.45.19-93.67l.09-22.56.15-40.2c.05-12.99.09-25.98.14-38.96.01-.81.01-1.62.01-2.45.02-4.04.03-8.08.05-12.13.12-33.34.24-66.69.37-100.03l10.8-4.71c1-.43 2.01-.87 3.04-1.32 9.41-4.1 18.87-8.07 28.36-11.99 2.75-1.14 5.51-2.28 8.26-3.43 1.76-.72 3.52-1.45 5.28-2.18.82-.34 1.64-.68 2.49-1.03 5.65-2.34 5.65-2.34 6.77-2.34Z"/><path fill="#5C7BEE" d="M444 95h363c-.77 4.62-1.45 7.49-3.27 11.62-.48 1.11-.95 2.21-1.45 3.35-.76 1.71-.76 1.71-1.53 3.47-6.76 15.45-13.23 31-19.75 46.56H471c-3.04-6.08-5.95-12-8.52-18.25-.31-.75-.62-1.49-.94-2.26-.98-2.35-1.95-4.7-2.91-7.05-.65-1.55-1.29-3.09-1.93-4.64-1.27-3.06-2.53-6.13-3.8-9.19-1.3-3.16-2.62-6.32-3.94-9.48-.32-.78-.65-1.56-.98-2.37-.63-1.49-1.25-2.99-1.88-4.48-2.1-5.05-2.1-5.05-2.1-7.28Zm37 95h291c-3.37 10.12-3.37 10.12-5.01 13.96-.54 1.29-.54 1.29-1.1 2.61-.38.9-.77 1.8-1.16 2.73l-1.23 2.9c-1.29 3.04-2.58 6.08-3.87 9.11-1.29 3.03-2.57 6.05-3.86 9.08-.79 1.87-1.59 3.75-2.38 5.62-2.83 6.65-5.61 13.32-8.39 19.99H508c-27-63.95-27-63.95-27-66Z"/><path fill="#36A2E7" d="M272 775c1.99 1.57 1.99 1.57 3.88 3.56.61.64 1.23 1.28 1.86 1.94 1.19 1.31 2.37 2.63 3.5 3.98 6.31 7.45 13.33 14.22 20.23 21.11 1.47 1.46 2.94 2.93 4.41 4.4 3.97 3.97 7.94 7.94 11.92 11.91 4.16 4.15 8.31 8.31 12.47 12.46 7.86 7.86 15.73 15.72 23.6 23.58 8.96 8.95 17.91 17.9 26.87 26.85C399.16 903.2 417.58 921.6 436 940c-.47 1.41-.93 2.83-1.4 4.24-.26.79-.52 1.58-.79 2.39-1.24 3.61-2.66 7.14-4.1 10.67-.31.76-.62 1.52-.93 2.3-.99 2.43-1.98 4.85-2.97 7.28-.67 1.66-1.35 3.32-2.03 4.99-4.51 11.08-9.07 22.13-13.78 33.13-3 0-3 0-5.27-1.9-.9-.9-1.79-1.79-2.71-2.72l-1.52-1.5c-1.68-1.67-3.35-3.36-5.02-5.04l-3.6-3.6c-3.27-3.26-6.53-6.54-9.79-9.81-3.41-3.43-6.83-6.85-10.25-10.27-5.75-5.75-11.49-11.51-17.23-17.27-7.35-7.38-14.72-14.75-22.08-22.12l-19.01-19.04c-2.03-2.04-4.06-4.07-6.09-6.11-3.21-3.2-6.41-6.41-9.61-9.63-1.17-1.17-2.34-2.35-3.51-3.52-5.4-5.41-10.74-10.83-15.71-16.65-2.89-3.29-6-6.35-9.1-9.43-.71-.71-1.42-1.43-2.16-2.16-2.33-2.33-4.66-4.65-6.99-6.98-1.63-1.63-3.26-3.25-4.88-4.88l-12.79-12.76c-4.36-4.35-8.72-8.7-13.07-13.05-8.54-8.52-17.07-17.04-25.61-25.56 2.7-2.88 5.1-4.05 8.8-5.5 1.19-.47 2.38-.94 3.61-1.42 1.3-.51 2.6-1.01 3.9-1.52l6.06-2.37 4.2-1.65c4.99-1.96 9.96-3.98 14.91-6.03 2.04-.84 4.08-1.67 6.11-2.51 1.31-.54 2.62-1.08 3.92-1.63 1.83-.77 3.66-1.52 5.49-2.26 1.04-.44 2.08-.87 3.15-1.31 3.13-.88 4.79-.79 7.85.2Z"/><path fill="#38A0E7" d="M429 203c4.7 11.19 9.38 22.4 14.01 33.62.94 2.26 1.88 4.51 2.81 6.77 1.6 3.86 3.18 7.73 4.74 11.61.73 1.74.73 1.74 1.46 3.52.43 1.06.86 2.13 1.3 3.23.37.92.75 1.85 1.14 2.8.69 3.12.24 3.77-1.46 6.45-1.74 1.72-3.54 3.38-5.37 5-6.45 5.78-12.59 11.83-18.7 17.97-1.15 1.15-2.3 2.31-3.45 3.46-2.45 2.45-4.91 4.91-7.36 7.37-3.88 3.9-7.76 7.79-11.65 11.68-8.24 8.25-16.48 16.51-24.72 24.77-8.91 8.93-17.82 17.87-26.74 26.79-3.86 3.86-7.71 7.73-11.56 11.6l-7.21 7.21c-1.11 1.11-2.21 2.22-3.32 3.33-5.27 5.3-10.55 10.54-16.25 15.37-2.9 2.52-5.53 5.3-8.18 8.08-1.18 1.21-2.36 2.42-3.55 3.63-1.83 1.88-3.65 3.77-5.47 5.66-1.77 1.86-3.56 3.69-5.36 5.52-.54.57-1.08 1.15-1.63 1.74-3.78 3.8-3.78 3.8-6.85 3.87-.87-.34-1.73-.69-2.63-1.05-.59-.22-1.18-.44-1.79-.67-2.17-.83-4.31-1.72-6.46-2.61-1.2-.5-1.2-.5-2.42-1-2.59-1.07-5.18-2.14-7.77-3.22l-5.31-2.19c-3.49-1.44-6.97-2.89-10.46-4.33-6.07-2.51-12.15-5-18.23-7.48-1.7-.7-3.41-1.4-5.12-2.09-1.13-.47-2.27-.93-3.44-1.41 1.42-3.23 3.14-5.38 5.63-7.86.73-.73 1.45-1.45 2.2-2.19 1.14-1.12 1.14-1.12 2.29-2.26l2.23-2.23c3.27-3.24 6.56-6.39 10.07-9.37 5.71-5 11.02-10.41 16.38-15.79l3.51-3.51 7.51-7.54c3.97-3.98 7.94-7.95 11.91-11.93 8.43-8.44 16.85-16.88 25.27-25.32 9.09-9.12 18.19-18.23 27.29-27.34 3.94-3.95 7.88-7.9 11.81-11.85 2.46-2.46 4.92-4.92 7.37-7.38 1.14-1.13 2.27-2.27 3.4-3.4 5.33-5.36 10.68-10.63 16.42-15.55 2.51-2.18 4.84-4.51 7.18-6.86.48-.49.97-.98 1.47-1.49 1.03-1.04 2.07-2.08 3.1-3.13l4.92-4.95c4.66-4.69 9.32-9.38 13.97-14.07 2.85-2.89 5.72-5.77 8.58-8.64l3.26-3.29c1.51-1.53 3.02-3.05 4.54-4.57l2.61-2.63C427 203 427 203 429 203Z"/><path fill="#28B0E4" d="m192 455 4.78 1.41c1.33.4 1.33.4 2.69.8 3.18.99 6.18 2.23 9.23 3.58 1.8.78 1.8.78 3.63 1.59 1.27.56 2.53 1.12 3.8 1.68 2.65 1.17 5.3 2.33 7.95 3.49.66.29 1.33.58 2.01.88 7.56 3.31 15.18 6.46 22.81 9.59.93.38 1.85.76 2.81 1.15.81.33 1.62.66 2.45 1C256 481 256 481 257 482c.1 2.96.13 5.89.13 8.85v2.85c.01 3.17 0 6.35 0 9.52v6.8c.01 6.18.01 12.35 0 18.53 0 6.45 0 12.91.01 19.36 0 11.54-.01 23.08-.01 34.62-.01 10.46 0 20.92 0 31.38.01 12.14.01 24.28 0 36.42 0 6.43 0 12.86.01 19.29 0 6.04 0 12.09-.01 18.14v6.66c.01 3.03 0 6.07 0 9.1v2.66c-.01 4.36-.07 8.56-1.13 12.82-2.14 1.56-2.14 1.56-5.03 2.72-1.08.45-2.17.9-3.29 1.36-1.19.47-2.39.94-3.62 1.42-1.24.5-2.47 1.01-3.71 1.52-2.67 1.09-5.34 2.17-8.02 3.24-4.57 1.83-9.11 3.73-13.65 5.63-3.08 1.29-6.16 2.57-9.24 3.86-.75.31-1.5.63-2.28.95-2.13.89-4.27 1.78-6.41 2.66-.64.27-1.28.54-1.94.81-2.79 1.14-4.76 1.83-7.81 1.83-.09-59.97.14-119.95.45-179.92l.18-36.15c.12-24.64.24-49.29.37-73.93Z"/><path fill="#2FA9E5" d="M231 1006c3.07 1.37 5.18 2.93 7.56 5.31.67.68 1.35 1.35 2.05 2.05.72.73 1.45 1.46 2.19 2.21l2.29 2.29c1.59 1.6 3.19 3.2 4.78 4.81 2.42 2.43 4.84 4.86 7.27 7.28 1.55 1.56 3.11 3.12 4.66 4.68 1.08 1.08 1.08 1.08 2.17 2.18.69.69 1.38 1.39 2.09 2.1.89.9.89.9 1.8 1.81 1.85 1.97 3.62 3.98 5.39 6.03 3.73 4.29 7.68 8.31 11.7 12.32.77.76 1.53 1.52 2.31 2.31 2.5 2.49 4.99 4.98 7.49 7.46 1.74 1.74 3.47 3.48 5.21 5.22l13.68 13.65 13.98 13.95c9.12 9.12 18.25 18.23 27.38 27.34-3.11 9.49-3.11 9.49-4.81 13.55-.32.77-.64 1.54-.97 2.34-.34.8-.67 1.6-1.02 2.43-.36.86-.72 1.72-1.09 2.61-1.14 2.73-2.28 5.46-3.42 8.2-1.5 3.58-3 7.17-4.49 10.75-.36.87-.72 1.73-1.09 2.62-3.11 7.47-6.13 14.97-9.11 22.5-4.29-.49-6.34-2.97-9.3-5.94l-1.56-1.56c-1.71-1.7-3.4-3.42-5.1-5.13-1.18-1.19-2.37-2.38-3.56-3.57-2.5-2.5-4.98-5-7.47-7.51-3.17-3.19-6.34-6.38-9.52-9.56-3.05-3.06-6.09-6.11-9.13-9.17l-1.74-1.74c-1.65-1.66-3.29-3.31-4.93-4.97l-1.44-1.44c-2.64-2.67-5.14-5.42-7.6-8.26-3.75-4.32-7.73-8.37-11.79-12.4l-2.37-2.37c-2.55-2.56-5.11-5.11-7.67-7.66-1.79-1.78-3.57-3.57-5.35-5.35-4.2-4.19-8.4-8.39-12.6-12.58-4.79-4.77-9.58-9.55-14.36-14.33-9.84-9.83-19.67-19.64-29.51-29.46 1.62-3.45 3.28-5.38 6.19-7.87 4.47-3.93 8.85-7.93 13.18-12 9.09-8.51 18.2-17 27.63-25.13Z"/><path fill="#A630FC" d="M1163 645h65v201c-3.62-.72-6.19-1.36-9.48-2.76-.85-.36-1.71-.72-2.59-1.1-.91-.39-1.83-.78-2.77-1.18-.96-.41-1.92-.82-2.9-1.23-3.07-1.3-6.13-2.61-9.2-3.92-2.02-.86-4.05-1.72-6.08-2.58-4.8-2.04-9.61-4.08-14.41-6.14-2.37-1-4.73-2.01-7.1-3.01-1.28-.54-2.57-1.09-3.85-1.63-1.62-.69-1.62-.69-3.27-1.38C1164 820 1164 820 1163 819c-.1-2.24-.12-4.48-.12-6.73v-2.15c0-2.4 0-4.8.01-7.21v-5.14c0-4.67 0-9.34.01-14.01 0-4.87.01-9.75.01-14.62 0-9.24.01-18.47.02-27.71.01-10.51.01-21.02.02-31.54.01-21.63.03-43.26.05-64.89Z"/><path fill="#32A7E6" d="m346 15 3 1c1.3 2.68 2.41 5.3 3.48 8.07.32.83.65 1.66.99 2.51 1.06 2.7 2.11 5.4 3.16 8.11 1.07 2.75 2.16 5.51 3.24 8.26.71 1.82 1.43 3.64 2.14 5.46 1.97 5.03 3.98 10.03 6.08 15 .43 1.01.86 2.03 1.3 3.07.76 1.8 1.53 3.59 2.31 5.37.33.78.65 1.55.99 2.35l.85 1.96c.59 2.36.34 3.58-.54 5.84-1.36 1.72-1.36 1.72-3.1 3.43-.64.63-1.27 1.26-1.93 1.91l-2.03 1.97c-.65.64-1.29 1.28-1.95 1.94-3.09 3.04-6.24 5.96-9.53 8.78-4.93 4.31-9.52 8.93-14.12 13.59l-2.82 2.85c-2.01 2.02-4.02 4.05-6.02 6.08a8652.36 8652.36 0 0 1-12.81 12.9c-.55.55-1.09 1.1-1.66 1.66-7.39 7.44-14.78 14.88-22.15 22.33-4.99 5.05-9.99 10.09-15 15.11-2.65 2.66-5.29 5.32-7.92 7.99-2.93 2.97-5.87 5.92-8.82 8.87l-2.64 2.7c-.8.8-1.6 1.59-2.43 2.41-.69.7-1.39 1.4-2.1 2.12-1.97 1.36-1.97 1.36-4.09 1.19-2.63-1.16-4.2-2.83-6.19-4.89-.72-.74-1.44-1.47-2.18-2.23-1.88-2.03-3.68-4.08-5.47-6.19-6.01-6.91-12.71-13.21-19.24-19.62-1.76-1.73-3.51-3.47-5.26-5.2-.54-.53-1.08-1.06-1.64-1.6-2.37-2.36-3.83-3.88-4.9-7.1 8.59-8.62 17.19-17.23 25.79-25.84 4-4 7.99-8 11.98-12.01 3.86-3.86 7.71-7.73 11.57-11.59l4.41-4.41c2.06-2.07 4.12-4.14 6.19-6.2.6-.61 1.2-1.21 1.81-1.83 3.64-3.63 7.41-7.03 11.3-10.39 3.03-2.68 5.88-5.53 8.73-8.4.63-.62 1.25-1.25 1.9-1.89 2.04-2.04 4.07-4.08 6.1-6.12 1.42-1.43 2.85-2.85 4.27-4.28 3.73-3.73 7.45-7.46 11.17-11.19 3.8-3.81 7.61-7.63 11.42-11.44C331.1 29.94 338.55 22.47 346 15Z"/><path fill="#1CBCE2" d="M171 189c6.4 4.46 11.84 9.58 17.31 15.12.86.85 1.71 1.71 2.59 2.59 2.71 2.72 5.4 5.44 8.1 8.17 1.84 1.85 3.68 3.7 5.53 5.55 4.49 4.52 8.98 9.04 13.47 13.57-5.27 6.38-11.05 12.23-16.88 18.09-1.1 1.11-2.2 2.21-3.29 3.32-3.58 3.61-7.16 7.21-10.74 10.81-.61.61-1.22 1.23-1.85 1.86-5.76 5.79-11.52 11.57-17.28 17.36-7.37 7.38-14.72 14.78-22.06 22.19-5.17 5.21-10.35 10.42-15.54 15.62-3.1 3.1-6.19 6.21-9.27 9.33-2.89 2.93-5.8 5.84-8.72 8.74a485.77 485.77 0 0 0-3.19 3.23c-1.44 1.47-2.9 2.92-4.37 4.37-.81.81-1.62 1.63-2.46 2.47C100 353 100 353 97.34 352.81c-2.33-.81-4.62-1.62-6.89-2.57-.87-.36-1.75-.72-2.65-1.1-1.4-.58-1.4-.58-2.82-1.18-1.47-.61-1.47-.61-2.97-1.23-3.13-1.3-6.26-2.61-9.39-3.92l-12.27-5.1c-.98-.41-1.96-.82-2.98-1.24-7.76-3.23-15.55-6.38-23.37-9.47 1.53-3.61 3.68-5.92 6.44-8.69.45-.45.91-.91 1.37-1.38 1.52-1.52 3.05-3.04 4.57-4.55 1.09-1.1 2.18-2.19 3.27-3.28 2.97-2.97 5.94-5.93 8.91-8.89 3.11-3.1 6.21-6.21 9.32-9.32 5.23-5.22 10.45-10.44 15.68-15.66 6.04-6.02 12.06-12.04 18.09-18.07 6.43-6.42 12.86-12.85 19.29-19.27l5.53-5.53c2.91-2.91 5.83-5.82 8.74-8.72 1.07-1.07 2.13-2.13 3.2-3.19 5.19-5.2 10.42-10.32 16.01-15.09 1.97-1.69 3.82-3.48 5.64-5.32.65-.66 1.3-1.31 1.98-1.99l1.96-1.99c.68-.68 1.36-1.37 2.06-2.07 1.65-1.66 3.29-3.32 4.94-4.99Z"/><path fill="#686FF0" d="M627 1162h170c26 62.71 26 62.71 26 65H627v-65Z"/><path fill="#4A8EEA" d="M408 1161c20.83-.02 41.65-.04 62.48-.05 9.67-.01 19.34-.01 29.01-.03 8.43-.01 16.85-.01 25.28-.01 4.46-.01 8.92-.01 13.39-.02h12.59c1.54 0 3.09-.01 4.63-.01h9.88c2.74.12 2.74.12 4.74 1.12v65c-11.63.03-23.25.05-34.87.06-.9 0-1.8 0-2.72.01-34.53.02-69.06-.22-103.6-.57-1.19-.01-2.39-.02-3.62-.04-14.73-.14-29.46-.3-44.19-.46 3.3-8.92 6.63-17.78 10.42-26.5.38-.9.77-1.79 1.16-2.71 1.2-2.79 2.4-5.57 3.61-8.35.81-1.89 1.63-3.78 2.44-5.68 1.79-4.14 3.57-8.29 5.37-12.43 1.34-3.11 2.67-6.22 4-9.33Z"/><path fill="#1ABFE1" d="M84 856c1.99 1.57 1.99 1.57 3.88 3.56.61.64 1.23 1.28 1.86 1.94 1.24 1.37 2.47 2.75 3.67 4.15 4.85 5.65 10.02 10.91 15.29 16.16.96.96 1.91 1.92 2.87 2.87 2.57 2.58 5.15 5.15 7.73 7.72 2.7 2.69 5.4 5.39 8.1 8.09 5.1 5.1 10.2 10.19 15.31 15.29 5.81 5.8 11.63 11.61 17.44 17.42 11.95 11.94 23.9 23.87 35.85 35.8-.94 1.12-1.89 2.24-2.84 3.36-.53.62-1.05 1.25-1.6 1.89-2.03 2.28-4.27 4.13-6.68 6-4.12 3.28-8.04 6.67-11.88 10.25-4.67 4.34-9.48 8.43-14.46 12.41-3.06 2.52-5.94 5.21-8.79 7.97-1.75 1.12-1.75 1.12-3.53.99-3.2-1.25-5.01-3.29-7.43-5.72-.5-.51-1.01-1.01-1.53-1.53-1.68-1.67-3.34-3.35-5-5.03-1.16-1.17-2.33-2.34-3.5-3.5-2.44-2.45-4.88-4.91-7.32-7.37-3.11-3.13-6.22-6.26-9.34-9.38-2.99-3-5.98-6-8.96-9-.57-.56-1.13-1.13-1.71-1.71-1.61-1.62-3.22-3.25-4.83-4.87-.92-.92-1.83-1.84-2.77-2.79-2.17-2.23-4.21-4.54-6.24-6.88-3.39-3.91-6.96-7.59-10.63-11.24l-2.01-2.01c-2.17-2.17-4.34-4.33-6.51-6.5-1.51-1.51-3.03-3.02-4.54-4.54L52 917.93c-4.06-4.05-8.12-8.1-12.17-12.15C31.89 897.85 23.95 889.92 16 882c1.39-2.77 2.87-2.95 5.73-4.09 1.01-.41 2.02-.82 3.06-1.24 1.1-.43 2.2-.87 3.33-1.32 1.13-.45 2.26-.91 3.42-1.37 3.63-1.46 7.26-2.91 10.9-4.35 2.41-.97 4.83-1.94 7.25-2.91 11.26-4.52 11.26-4.52 16.42-6.56 1.91-.77 3.82-1.56 5.7-2.39 1.31-.56 1.31-.56 2.65-1.14l2.3-1.03c2.77-.74 4.51-.42 7.24.4Z"/><path fill="#A630FC" d="M1228 404v184h-65V431c7.61-3.51 15.15-6.98 22.89-10.16.86-.36 1.73-.72 2.63-1.09 2.72-1.13 5.44-2.25 8.17-3.37l5.49-2.28c6.78-2.8 13.55-5.6 20.35-8.34 1.25-.51 1.25-.51 2.52-1.02 1.95-.74 1.95-.74 2.95-.74Z"/><path fill="#36A2E7" d="M300 942c3.62.44 5.36 1.98 7.9 4.49.77.75 1.53 1.5 2.32 2.27a597.55 597.55 0 0 0 5.18 5.13c2.41 2.38 4.81 4.76 7.21 7.15 1.5 1.5 3 2.99 4.5 4.48 5.24 5.2 10.48 10.41 15.7 15.62 4.87 4.86 9.76 9.71 14.66 14.54 4.2 4.15 8.39 8.31 12.57 12.49 2.5 2.49 5 4.98 7.52 7.45 2.81 2.76 5.58 5.55 8.36 8.34.83.81 1.67 1.63 2.54 2.47 5.51 5.62 5.51 5.62 5.66 10.33L393 1040c-.27.83-.53 1.65-.81 2.51-.32.76-.64 1.53-.97 2.32-.36.88-.73 1.76-1.1 2.67-.4.93-.79 1.86-1.2 2.82-.41.99-.82 1.97-1.24 2.98-1.3 3.13-2.61 6.26-3.93 9.39-.87 2.08-1.74 4.16-2.61 6.25-2.02 4.86-4.06 9.71-6.1 14.57-2.02 4.83-4.03 9.66-6.04 14.49-4 0-4 0-5.86-1.37l-1.95-1.95c-.75-.74-1.49-1.48-2.26-2.24-.8-.82-1.61-1.64-2.44-2.48-.86-.86-1.72-1.71-2.6-2.59-2.35-2.36-4.7-4.71-7.04-7.08-2.45-2.47-4.92-4.94-7.38-7.41-4.15-4.15-8.28-8.3-12.41-12.47-5.29-5.32-10.58-10.63-15.88-15.94-4.57-4.58-9.14-9.16-13.7-13.75-.98-.98-1.95-1.96-2.93-2.94-3.22-3.23-6.44-6.46-9.65-9.7-1.2-1.21-1.2-1.21-2.43-2.44-4.16-4.2-8.18-8.49-12.04-12.99-1.72-1.98-3.53-3.86-5.39-5.71-.66-.65-1.31-1.3-1.99-1.98l-1.99-1.96c-.68-.68-1.37-1.36-2.07-2.06-1.66-1.65-3.32-3.3-4.99-4.94 3.76-4.56 7.67-8.74 12.06-12.69 1.15-1.04 2.3-2.09 3.44-3.13l1.76-1.6c2.76-2.51 5.5-5.05 8.24-7.58 1.07-.99 2.14-1.97 3.2-2.96.54-.49 1.07-.98 1.62-1.49 1.79-1.65 3.57-3.29 5.35-4.94l1.82-1.67c1.15-1.07 2.31-2.13 3.46-3.2 2.56-2.33 2.56-2.33 5.05-4.74Z"/><path fill="#1CBDE2" d="M97 419c11.24 3.37 11.24 3.37 16.7 5.79 1.8.78 1.8.78 3.63 1.59 1.27.56 2.53 1.12 3.8 1.68 2.65 1.17 5.3 2.33 7.95 3.49.66.29 1.33.58 2.01.88 7.56 3.31 15.18 6.46 22.81 9.59.93.38 1.85.76 2.81 1.15.81.33 1.62.66 2.45 1C161 445 161 445 162 446c.1 1.72.12 3.45.12 5.17v3.39c0 1.86 0 1.86-.01 3.76v3.93c0 3.57 0 7.14-.01 10.71 0 3.72-.01 7.45-.01 11.17 0 7.06-.01 14.12-.02 21.18-.01 9.53-.02 19.07-.02 28.6-.01 15.03-.03 30.06-.05 45.09H97V419Z"/><path fill="#8F48F7" d="M1037.61 833.25c2.29.72 4.5 1.49 6.72 2.4 1.24.51 1.24.51 2.51 1.03.88.36 1.76.73 2.67 1.11l2.82 1.15c2.97 1.23 5.94 2.46 8.92 3.68 1.95.81 3.9 1.61 5.86 2.41 4.73 1.95 9.46 3.9 14.19 5.86 4.21 1.73 8.41 3.46 12.62 5.2 1.39.57 2.77 1.14 4.16 1.71 1.44.59 1.44.59 2.92 1.2-1.51 3.54-3.58 5.83-6.28 8.55l-2.72 2.75c-.99 1-1.99 1.99-2.99 2.99-1.05 1.06-2.1 2.11-3.14 3.17-2.85 2.87-5.7 5.73-8.55 8.58-1.78 1.79-3.56 3.57-5.34 5.36-6.2 6.23-12.41 12.45-18.63 18.67-5.8 5.8-11.58 11.62-17.36 17.44-4.96 5-9.93 9.98-14.91 14.96-2.98 2.97-5.95 5.95-8.91 8.94-2.78 2.81-5.57 5.6-8.37 8.39-1.03 1.03-2.05 2.06-3.07 3.09-1.387 1.41-2.797 2.8-4.197 4.19l-2.38 2.38c-2.15 1.54-2.15 1.54-4.29 1.41-2.79-1.3-4.5-3.27-6.61-5.5-2.82-2.95-5.63-5.73-8.74-8.37-6.33-5.47-12.12-11.51-18.01-17.44-1.22-1.22-2.44-2.44-3.65-3.66-2.95-2.96-5.9-5.93-8.85-8.9 1.41-3.21 3.12-5.38 5.58-7.87.75-.75 1.49-1.51 2.26-2.29.82-.82 1.63-1.64 2.47-2.48.86-.87 1.73-1.74 2.61-2.64 2.36-2.38 4.72-4.76 7.09-7.13 1.47-1.48 2.95-2.97 4.43-4.45 4.61-4.65 9.24-9.29 13.86-13.92 5.35-5.36 10.68-10.72 15.99-16.1 4.117-4.15 8.237-8.3 12.367-12.43 2.47-2.47 4.94-4.95 7.39-7.44 2.73-2.77 5.48-5.51 8.24-8.26.81-.83 1.62-1.66 2.46-2.51l2.28-2.25c.97-.98.97-.98 1.97-1.98 2-1.25 2-1.25 4.61-1Z"/><path fill="#6672F0" d="M627 1066c18.05 0 36.09.03 54.14.22 2.25.02 4.5.04 6.74.07 5.8.05 11.6.11 17.39.17l17.89.18 34.84.36c2.32 5.59 4.64 11.19 6.96 16.78.78 1.9 1.57 3.79 2.36 5.69 4.42 10.65 8.83 21.31 13.24 31.97.54 1.3.54 1.3 1.1 2.63 2.34 5.7 2.34 5.7 2.34 7.93H627v-66Z"/><path fill="#7D5AF4" d="M909 959c1.12.95 2.23 1.9 3.35 2.86.62.53 1.24 1.06 1.88 1.61 2.18 1.89 4.24 3.86 6.27 5.91.69.68 1.38 1.37 2.09 2.08 1.9 2 3.69 4.03 5.48 6.12 2.99 3.45 6.15 6.7 9.39 9.91l1.46 1.44c1.99 1.96 3.99 3.93 5.99 5.88 1.48 1.45 2.95 2.91 4.43 4.37 1.3 1.28 1.3 1.28 2.64 2.59C954 1004 954 1004 955 1007l-4.5 4.56c-.84.85-1.67 1.7-2.53 2.57-2.12 2.09-4.31 4.04-6.57 5.97-4.79 4.18-9.25 8.63-13.72 13.14-1.38 1.38-2.75 2.76-4.12 4.14-1.46 1.46-2.92 2.93-4.38 4.4-3.05 3.06-6.1 6.13-9.16 9.19-8.67 8.69-17.34 17.4-26 26.11-4.8 4.82-9.6 9.64-14.41 14.45-3.03 3.05-6.07 6.1-9.1 9.15l-6.96 6.99c-.85.85-1.69 1.69-2.55 2.57-1.15 1.15-1.15 1.15-2.32 2.31-1 1.01-1 1.01-2.02 2.03C845 1116 845 1116 843 1116c-4.99-11.96-9.96-23.93-14.9-35.9-1.27-3.08-2.54-6.16-3.82-9.23-1.34-3.22-2.66-6.45-3.97-9.68-.38-.91-.76-1.81-1.15-2.74-.32-.81-.65-1.63-.98-2.47-.28-.68-.56-1.36-.85-2.07-.45-2.62.32-3.65 1.67-5.91 1.65-1.63 1.65-1.63 3.6-3.23 4.51-3.82 8.67-7.91 12.84-12.09 1.2-1.2 1.2-1.2 2.42-2.43 2.62-2.62 5.24-5.25 7.86-7.87 1.83-1.83 3.65-3.66 5.48-5.49 4.3-4.3 8.6-8.61 12.9-12.92 4.9-4.9 9.8-9.81 14.7-14.72 10.07-10.08 20.14-20.16 30.2-30.25Z"/><path fill="#24B4E3" d="M176 815c5.47 4.57 10.56 9.41 15.6 14.45l2.51 2.51c2.73 2.71 5.45 5.43 8.17 8.15a8301.453 8301.453 0 0 1 17.56 17.55c4.58 4.58 9.17 9.15 13.75 13.72 3.95 3.94 7.89 7.87 11.83 11.81 2.35 2.35 4.7 4.7 7.05 7.04 2.62 2.61 5.23 5.22 7.84 7.84.78.77 1.57 1.55 2.37 2.35.71.71 1.41 1.42 2.14 2.15l1.87 1.87C268 906 268 906 268 908c-1.53 1.37-3.13 2.67-4.75 3.94-4.24 3.38-8.29 6.86-12.25 10.56-4.58 4.26-9.31 8.24-14.19 12.16-3.72 3.1-7.25 6.37-10.75 9.71-2.56 2.41-4.89 4.15-8.06 5.63a40369.36 40369.36 0 0 1-41.46-41.31c-6.41-6.39-12.83-12.79-19.25-19.18-5.6-5.56-11.19-11.13-16.77-16.71-2.96-2.95-5.92-5.91-8.89-8.85-2.79-2.77-5.57-5.55-8.35-8.33-1.02-1.02-2.05-2.04-3.08-3.06-1.4-1.39-2.79-2.78-4.18-4.18-.78-.77-1.56-1.55-2.36-2.36C112 844 112 844 112 841c6.7-2.74 13.41-5.48 20.11-8.22 2.28-.92 4.55-1.85 6.82-2.78 12.34-5.04 24.68-10.08 37.07-15Z"/><path fill="#4C8CEB" d="M450.028 1065.88h5.84c1.14 0 2.27.01 3.44.01h3.61c3.27 0 6.55 0 9.82.01 3.42.01 6.83.01 10.25.01 6.47 0 12.95.01 19.42.02 8.09.01 16.18.02 24.27.02 14.44.01 28.88.03 43.32.05v65h-149c.69-3.45 1.22-5.84 2.55-8.93.31-.74.63-1.48.95-2.24.34-.79.68-1.58 1.04-2.4.35-.83.71-1.67 1.08-2.53 1.14-2.68 2.29-5.35 3.44-8.02 1.12-2.61 2.24-5.23 3.36-7.84.74-1.74 1.49-3.47 2.23-5.2 1.91-4.44 3.8-8.89 5.66-13.34.37-.88.74-1.76 1.11-2.67.71-1.68 1.41-3.36 2.1-5.05 2.82-6.74 2.82-6.74 5.51-6.9Z"/><path fill="#1CBDE2" d="M96 636h66l-1 120-48 20-14 6h-3V636Z"/><path fill="#8650F6" d="M935 336c5.42 4.52 10.44 9.3 15.41 14.3l2.46 2.46c2.66 2.66 5.31 5.32 7.97 7.98 1.85 1.85 3.7 3.71 5.55 5.56 4.36 4.36 8.72 8.73 13.08 13.1 4.97 4.98 9.93 9.95 14.9 14.92 10.22 10.23 20.42 20.45 30.63 30.68-1.32 2.65-2.47 2.79-5.19 3.88-.89.36-1.78.72-2.7 1.09l-2.96 1.17c-1.01.41-2.01.81-3.05 1.23-3.24 1.3-6.48 2.59-9.72 3.88-2.14.85-4.27 1.71-6.4 2.57-4.12 1.65-8.25 3.29-12.37 4.93-3.45 1.38-6.89 2.78-10.3 4.23-.69.29-1.38.58-2.1.88-1.77.75-3.53 1.51-5.3 2.27-3.42 1.02-4.55 1.05-7.91-.13-2.54-1.97-4.75-4.24-6.99-6.54-.69-.68-1.37-1.37-2.07-2.07-2.26-2.26-4.5-4.53-6.74-6.8-1.56-1.57-3.12-3.14-4.69-4.7-4.11-4.13-8.21-8.27-12.3-12.41-4.18-4.22-8.38-8.43-12.57-12.65-8.23-8.26-16.44-16.54-24.64-24.83 1.67-3.58 3.5-5.58 6.5-8.19.9-.79 1.79-1.57 2.72-2.38.92-.8 1.83-1.61 2.78-2.43 1.67-1.5 3.34-3 5-4.5 10-9 10-9 12.48-11.23 1.73-1.55 3.44-3.11 5.16-4.66 4.38-3.96 8.78-7.87 13.36-11.61Z"/><path fill="#8D49F7" d="M972 645h66c.08 31.7-.01 63.37-.5 95.06-.01.78-.02 1.56-.04 2.35-.14 9.53-.3 19.06-.46 28.59-12.73-4.59-25.14-9.82-37.56-15.19-1.89-.81-3.78-1.63-5.68-2.44-4.14-1.79-8.29-3.57-12.43-5.37-3.11-1.34-6.22-2.67-9.33-4v-99Z"/><path fill="#7661F3" d="M842 891c3.5 1.65 5.78 3.53 8.52 6.29l2.6 2.6c1.33 1.36 1.33 1.36 2.69 2.74.88.87 1.76 1.75 2.66 2.66 4.45 4.47 8.72 9.02 12.83 13.81 3.68 4.11 7.77 7.85 11.8 11.61.65.62 1.29 1.25 1.96 1.9.59.56 1.18 1.11 1.79 1.69 1.15 1.7 1.15 1.7.93 3.58-.94 2.57-2.14 3.86-4.08 5.79-1.05 1.07-1.05 1.07-2.13 2.16-.78.77-1.56 1.54-2.36 2.34-.82.81-1.64 1.63-2.48 2.48-2.7 2.71-5.42 5.41-8.13 8.12-1.88 1.87-3.76 3.75-5.63 5.63l-11.82 11.79c-4.57 4.54-9.13 9.1-13.68 13.65-4.37 4.38-8.75 8.76-13.14 13.13-1.86 1.87-3.73 3.73-5.59 5.6-2.6 2.6-5.21 5.19-7.82 7.78-.77.78-1.55 1.56-2.35 2.36-.71.7-1.42 1.41-2.15 2.13l-1.86 1.86C803 1024 803 1024 801 1024c-.29-.73-.58-1.46-.88-2.21l-3.45-8.67-1.59-3.99c-3.26-8.22-6.6-16.41-10.06-24.55-.98-2.32-1.96-4.63-2.93-6.94-.64-1.51-1.29-3.01-1.94-4.52-.92-2.11-1.81-4.23-2.7-6.35-.53-1.21-1.05-2.42-1.58-3.67-.87-3.1-.87-3.1-.31-4.89 2.14-3.28 4.85-5.88 7.63-8.63.64-.64 1.27-1.27 1.93-1.92 2.09-2.1 4.19-4.18 6.29-6.27 1.46-1.45 2.91-2.9 4.37-4.35 3.82-3.82 7.66-7.64 11.49-11.45 3.91-3.89 7.82-7.78 11.72-11.68 7.67-7.64 15.34-15.28 23.01-22.91Z"/><path fill="#8552F5" d="m944.124 792.028 2.88.97c1.17.4 1.17.4 2.37.8.76.32 1.52.64 2.31.96.87.37 1.75.73 2.65 1.1.93.39 1.86.78 2.82 1.18.98.41 1.96.82 2.97 1.24 3.13 1.29 6.25 2.6 9.38 3.91l6.21 2.58c10.45 4.35 20.89 8.74 31.286 13.23-1.38 3.1-2.96 5.21-5.36 7.6-.69.69-1.38 1.39-2.096 2.1-.76.76-1.52 1.51-2.3 2.28-.8.8-1.6 1.6-2.42 2.43-2.65 2.64-5.3 5.28-7.96 7.92l-5.5 5.5c-4.34 4.33-8.68 8.66-13.03 12.98-4.95 4.93-9.89 9.86-14.83 14.79-10.16 10.14-20.33 20.27-30.5 30.4-3.01-1.44-5.1-2.85-7.45-5.24-.66-.65-1.31-1.31-1.99-1.99-.69-.71-1.39-1.42-2.11-2.15l-2.21-2.23c-2.34-2.36-4.67-4.72-6.99-7.08-2.32-2.34-4.63-4.68-6.95-7.01-1.44-1.46-2.88-2.91-4.32-4.37-3.97-4.01-8.03-7.75-12.42-11.29-1.84-1.93-2.24-3.01-2.56-5.64 1.84-2.36 3.64-4.34 5.75-6.43.63-.64 1.25-1.28 1.9-1.93 2.07-2.11 4.16-4.2 6.26-6.28 1.44-1.46 2.89-2.91 4.33-4.36 3.03-3.05 6.07-6.09 9.12-9.13 3.91-3.89 7.79-7.81 11.67-11.73 2.97-3.01 5.97-6.01 8.97-9 1.43-1.44 2.87-2.88 4.29-4.33 2-2.02 4.02-4.02 6.04-6.02.59-.6 1.18-1.21 1.78-1.83 2.72-2.64 4.14-3.96 8.01-3.93Z"/><path fill="#6374EF" d="M627 971h93c3.51 7.61 6.98 15.15 10.16 22.89.36.86.72 1.73 1.09 2.63 1.13 2.72 2.25 5.44 3.38 8.17.75 1.83 1.51 3.66 2.27 5.49 2.04 4.94 4.08 9.88 6.1 14.82.37.91.75 1.81 1.13 2.74.37.9.74 1.8 1.11 2.73.34.82.68 1.64 1.02 2.48.74 2.05.74 2.05.74 4.05-10.06.03-20.12.05-30.19.06-.75 0-1.5 0-2.27.01-29.2.02-58.35-.42-87.54-1.07v-65Z"/><path fill="#785FF3" d="M819 220c5.21 4.36 10.07 8.94 14.86 13.75.76.75 1.51 1.5 2.28 2.28 2.47 2.46 4.93 4.93 7.39 7.4 1.71 1.72 3.43 3.44 5.15 5.15 4.5 4.51 9 9.02 13.49 13.53 4.6 4.6 9.2 9.21 13.8 13.81 9.01 9.03 18.02 18.05 27.03 27.08-1.52 3.21-3.05 5.23-5.67 7.64l-2.21 2.06-2.31 2.11c-1.49 1.38-2.99 2.76-4.48 4.15-.73.67-1.46 1.35-2.21 2.04-2.6 2.45-5.12 4.98-7.63 7.52-1.72 1.71-3.51 3.3-5.36 4.86-3.93 3.37-7.54 6.99-11.15 10.7C860 346 860 346 857 348c-3.63-.29-5.37-2.01-7.86-4.54-.73-.72-1.45-1.45-2.19-2.2l-2.26-2.32c-.74-.74-1.47-1.48-2.23-2.24-3.34-3.4-6.58-6.83-9.69-10.45-3.9-4.48-8.1-8.6-12.36-12.73-1.63-1.59-3.25-3.18-4.87-4.78-2.53-2.48-5.07-4.96-7.62-7.42-2.48-2.4-4.93-4.82-7.39-7.24-.77-.73-1.54-1.47-2.33-2.23-.7-.69-1.4-1.39-2.12-2.1-.62-.61-1.24-1.21-1.88-1.84-1.2-1.91-1.2-1.91-.98-4.42 1.09-3.49 2.42-6.85 3.81-10.23.3-.75.61-1.5.92-2.27.99-2.44 1.99-4.87 2.99-7.3l2.04-5.01c5.27-12.92 10.61-25.82 16.02-38.68Z"/><path fill="#4F89EB" d="M483 971h87v65H457c.71-3.54 1.3-6.04 2.65-9.25.34-.8.68-1.61 1.03-2.44.36-.86.73-1.72 1.11-2.61.57-1.36.57-1.36 1.16-2.75 1.22-2.9 2.45-5.8 3.67-8.7 1.21-2.86 2.42-5.72 3.62-8.58.75-1.77 1.5-3.54 2.25-5.32 3.56-8.42 7.03-16.89 10.51-25.35Z"/><path fill="#8D49F7" d="M1038 481v107h-66c0-11.77.01-23.53.22-35.3.02-1.34.04-2.67.07-4.01.05-3.45.11-6.9.17-10.34.07-3.55.12-7.1.18-10.64L973 507c14.05-6.15 28.14-12.2 42.31-18.06 2.4-.99 4.79-1.99 7.18-2.98 1.46-.61 2.92-1.21 4.38-1.82 7.59-3.14 7.59-3.14 11.13-3.14Z"/></svg>