<svg xmlns="http://www.w3.org/2000/svg" width="3286" height="1006" fill="none"><path fill="#9C71E0" d="M2660.37 302.5c7.02 6.682 11.56 16.365 12.07 26.063-.16 5.042-1.41 9.692-2.73 14.542-2 7.51-3.16 15.143-4.31 22.821l-.47 2.996-.4 2.675c-.88 3.974-2.08 5.988-5.09 8.747-2.95 3.214-3.13 4.866-3.44 9.156-1.4 12.417-6.75 23.558-13.6 33.922-1.61 2.965-2.09 5.51-2.65 8.828-1.23 5.69-2.96 8.815-6.74 13.133-2.58 3.366-4.36 6.96-6.26 10.742-4.05 7.963-8.93 14.876-14.33 21.967-2.47 3.317-4.78 6.739-7.11 10.158-6.63 9.709-13.29 19.113-21.31 27.75l-1.78-.484c-3.84-.892-7.62-1.317-11.22.484-1.35 2.191-1.35 2.191-.27 5.664.58 4.287-.42 6.363-2.89 9.814l-1.47 1.897-1.48 2.047A583.269 583.269 0 0 1 2560 542c-1.75 2.363-3.5 4.731-5.23 7.106a599.837 599.837 0 0 1-3.35 4.515c-3.61 4.88-6.19 9.744-8.42 15.379l-.83 2.094a637.67 637.67 0 0 0-1.6 4.08c-2.43 6.171-5 11.807-8.63 17.389-3.51 5.387-5.69 10.68-7.79 16.7-1.72 4.85-3.91 8.91-6.69 13.21-2.82 4.878-4.59 10.233-6.46 15.527 5.91-4.775 10.48-9.915 15-16 2.98-3.835 6-7.189 10-10h2l.75-1.688c2.91-5.377 6.86-9.426 12.25-12.312 2.94-.313 2.94-.313 5 0l1.37-3.75c1.37-2.793 2.13-4.003 4.95-5.39 1.76-.579 3.52-1.155 5.29-1.731 3.43-1.618 4.53-3.853 6.06-7.227 1.33-1.902 1.33-1.902 4.2-3.332 3.53-1.774 4.97-3.535 7.38-6.633 6.06-6.959 13.47-10.633 21.6-14.779 2.11-1.14 4.1-2.39 6.1-3.709 14.9-9.448 33.87-12.325 51.04-8.707 10.12 2.827 17.96 7.31 23.32 16.508 2.04 8.17.3 16.953-1 25.125l-.54 3.456c-2.49 15.216-6.42 29.8-11.36 44.398-2.94 8.848-4.97 17.143-3.7 26.466.39 3.128.36 6.157.29 9.305 2.75-.392 3.85-.847 5.81-2.875 2.19-2.125 2.19-2.125 5.5-3.375 5.73-2.236 9.2-7.57 12.56-12.5 2.64-2.794 5.24-3.722 8.76-5.164 5.26-2.409 9.55-5.92 13.18-10.399 8.25-10.078 20.56-17.687 31.4-24.789a46.6 46.6 0 0 0 6.16-4.96c2.46-2.185 4.35-3.305 7.5-4.188 5.01-1.612 7.54-5.346 10.85-9.258 3.32-3.627 7.12-5.941 11.28-8.492 5.02-3.344 9.73-6.672 14.06-10.875 2.87-2.62 4.5-3.462 8.38-3.563 6.2-.223 9.37-4.397 13.56-8.562 1.49-1.302 2.99-2.594 4.5-3.875 2.66-2.238 2.66-2.238 4.5-5.125a81.818 81.818 0 0 1 4.5-2.188c4.72-2.268 8.58-5.01 12.59-8.359 4.41-3.352 9.64-3.17 14.91-2.453 10.22 3.317 18.81 10.435 24.57 19.465 3.68 7.552 2.43 14.631.64 22.547l-.57 2.574c-.4 1.792-.8 3.583-1.21 5.373-.61 2.7-1.2 5.404-1.79 8.11-2.7 12.127-5.25 23.412-13.64 32.931-.7 1.987-1.37 3.988-2 6l-1.59 1.34c-1.69 1.618-1.69 1.618-1.34 4.183.33 1.897.66 3.793 1 5.688-.07 2.789-.07 2.789-2 5.031-3.01 4.003-2.7 7.626-2.76 12.508-.04 1.724-.09 3.448-.13 5.172l-.04 2.3C2860 672 2860 672 2859 673c2.02.191 4.04.326 6.06.438 1.13.08 2.25.162 3.41.246 4.45-.862 5.63-2.592 8.58-5.841 3.46-3.275 7.74-4.811 12.07-6.656 9.13-4.113 16.24-8.755 23.88-15.187 2.15-1.69 4.32-3.344 6.5-5 1.08-.83 2.16-1.66 3.24-2.492 2.2-1.696 4.41-3.388 6.61-5.078 6.62-5.066 13.18-10.182 19.65-15.43l1.81-1.465c2.19-1.797 4.25-3.596 6.19-5.66 2-1.875 2-1.875 5-3.25 3.16-1.404 3.16-1.404 4.75-4.316 2.65-3.899 5.69-6.747 9.19-9.871 1.22-1.105 2.43-2.21 3.65-3.317l1.76-1.6c2.28-2.108 4.46-4.317 6.65-6.521 1.21-1.123 2.44-2.227 3.69-3.313l1.76-1.55C2995 576 2995 576 2997 576l.25-2.75c.86-3.737 1.71-4.97 4.75-7.25l2.62-.438c.79-.185 1.57-.37 2.38-.562l.94-2.5 1.06-2.5c3.12-.813 3.12-.813 6-1l.12-3.063c1.08-7.039 6.78-10.93 12.07-15.125 5.79-4.62 10.6-9.77 15.47-15.307 2.12-2.387 4.3-4.722 6.46-7.067A305.96 305.96 0 0 0 3063 502l2.06-2.574c5.39-7.034 9.22-14.528 13.01-22.49 1.83-3.8 3.78-7.537 5.7-11.288 2.33-5.022 3.49-9.081 3.23-14.648l-2.75 1.602c-9.93 5.53-9.93 5.53-13.87 5.136a293.95 293.95 0 0 1-4.17-1.56c-2.35-.446-2.35-.446-4.19 1.437l-2.07 2.248c-5.22 4.902-9.3 5.295-16.26 5.387-2.13.104-4.25.218-6.38.34l-3.2.175c-10.95.827-21.86 3.067-31.67 8.07-6.43 3.066-13.72 4.304-20.66 5.735-1.87.381-1.87.381-3.78 1.43-1.69.13-3.37.23-5.06.313-3.86.308-6.71.84-10.13 2.625-3.9 1.922-7.23 2.428-11.56 2.812-7.58.734-14.84 2.46-22.19 4.422-1.89.503-3.79.987-5.68 1.47-10.05 2.76-17.09 7.137-24.57 14.295-2.7 2.39-3.81 3.064-7.44 4-5.09-1.415-6.79-4.499-9.37-8.937l-1.26-2.113c-3.6-6.914-3.92-14.064-2.08-21.594 4.68-13.178 15.46-19.596 27.47-25.41L2908 452l-1.65-1.469c-8.18-7.666-9.98-14.372-10.55-25.504-.02-1.363-.04-2.726-.05-4.09l-.06-2.064c-.04-5.397 1.12-9.298 4.64-13.434 3.23-2.782 7.46-3.59 11.48-4.814l2.7-.902c6.61-2.028 6.61-2.028 10.97-.516 7.31 5.21 13.65 13.216 16.52 21.793.65 8.107-.32 18.637-4 26l2.27-1.094c9.39-4.254 9.39-4.254 14.73-3.906 4.03.215 6.52-.444 10.19-2.125 5.97-2.714 12.03-4.46 18.37-6.125l2.9-.782c4.82-1.24 9.43-2.124 14.4-2.491 4.08-.303 7.14-.987 10.83-2.852 5.47-2.475 10.64-3.607 16.51-4.601 6.68-1.137 13.01-2.576 19.05-5.712 4.92-1.72 9.28-1.443 14.45-1.222 4.1-.112 6.81-1.208 10.3-3.278 2-.812 2-.812 4.27-.292 7.81 1.375 16.38-3.006 23.26-6.336 4.47-2.143 7.25-3.28 12.22-2.809 2.7-.04 2.7-.04 5.25-1.375 3.45-4.174 5.62-9.313 8.02-14.136 2.35-4.466 5.8-7.771 9.48-11.177 4.23-4.544 7.05-10.02 10-15.453 3.04-5.416 4.85-7.523 10.5-10.234a99.304 99.304 0 0 0 3.87-4.813c4.27-5.57 8.51-9.957 15.25-12.25 3.82.084 5.74.876 8.88 3.063 3.33 5.096 5.21 10.091 6.81 15.938l.7 2.302c1.78 6.392 1.61 11.388-.51 17.76a76.869 76.869 0 0 0-.32 4.012l-.12 2.295-.12 2.38-.13 2.417c-.11 1.965-.21 3.93-.31 5.896 4.82.214 4.82.214 9.37-1.063 2.63-.937 2.63-.937 6.45-.218 6.7.835 12.44-1.84 18.62-4.157 13.86-5.167 13.86-5.167 21.54-4.545 2.82-.024 4.56-1.397 6.85-2.931 5.19-2.597 11.48-3.129 17.17-4.086l2.5-.512c5.15-.936 8.09-.047 12.5 2.512 2.41 3.698 2.12 6.416 1.52 10.64-.83 3.786-2.35 6.976-4.21 10.36l-1.17 2.181c-4.52 8.021-10.35 14.955-16.41 21.847a386.865 386.865 0 0 0-3.61 4.175l-1.86 2.168c-.55.648-1.1 1.295-1.67 1.963-3.08 3.234-6.27 4.357-10.53 5.354-4.82-1.083-7.35-4.693-10.06-8.688v-2l-2.19.563c-12.85 3.293-25.69 6.517-38.69 9.187l-2.99.62c-4.14.85-8.28 1.67-12.45 2.357-7.61 1.34-12.85 3.012-17.68 9.273a100.068 100.068 0 0 0-4.58 8.45c-1.42 2.55-1.42 2.55-3.31 4.336-2.43 2.55-3.77 5.039-5.35 8.187l-1.79 3.474c-.93 1.81-1.85 3.62-2.75 5.438-.9 1.764-1.8 3.523-2.71 5.275l-1.61 3.176c-2.27 3.181-4.34 4.159-7.9 5.664-2.08 1.693-3.03 3.059-4.31 5.438-2.11 3.197-4.49 4.47-7.69 6.562-6.7 5.544-11.25 12.827-16 20-.65.922-1.29 1.843-1.95 2.793-4.09 6.02-6.62 11.995-8.93 18.89-1.84 5.423-3.94 10.549-7.12 15.317-.09 2.7-.09 2.7.12 5.75.14 6.714-1.36 12.284-3.25 18.684-.81 3.31-1.03 5.875-.87 9.254.18 4.032-.37 6.699-1.88 10.437-2.36 6.386-2.89 12.737-3.43 19.5l-.27 3.215c-.41 5.766-.41 11.237.33 16.974.25 2.217.33 4.393.37 6.624.79 6.96 5.55 12.594 9.76 17.957 10.26 13.365 10.2 29.208 8.8 45.27-.78 5.677-1.81 9.923-5.68 14.335l-2.5 2.875c-3.8 2.967-7.88 2.82-12.53 2.602-7.15-1.15-11.93-5.758-16.39-11.227-7.17-10.196-10.09-23.426-13.58-35.25l-.63-2.053c-1.63-5.742-1.77-11.444-1.93-17.384-.24-8.2-.24-8.2-.99-16.364-.46-3.734-.37-7.193-.01-10.949.37-4.38.59-8.583.38-12.973-.5-11.818 1.25-21.708 4.6-33.057 2.31-7.844 3.68-14.997 3.58-23.22l-2.19 2.25c-2.81 2.75-2.81 2.75-5.5 4.813-2.41 1.737-2.41 1.737-3.31 4.125l-1 1.812-2.25.184c-4.08 1.21-5.52 4.265-7.69 7.691-3.24 5.111-5.46 7.505-11.06 10.125-2.65 2.612-2.65 2.612-5.06 5.563-3.09 3.676-5.25 6.134-9.94 7.437h-3l-.75 3.313c-1.31 3.849-1.79 4.809-5.25 6.687-.81.26-1.62.52-2.45.79-3.8 1.801-4.92 4.653-6.93 8.214-1.62 1.996-1.62 1.996-4.31 2.773L2977 635l-.56 2.625c-2.79 6.544-8.26 9.425-14.47 12.324-2.73 1.458-4.85 3.365-7.14 5.426-5.29 4.703-11.1 8.833-16.77 13.063-10.28 7.55-10.28 7.55-19.56 16.25-4.19 4.342-9 7.783-13.88 11.312l-2.45 1.784C2896.26 702 2896.26 702 2894 702l-.66 2.352c-1.75 3.46-3.16 3.773-6.78 5.023-4.45 1.678-8.15 3.54-12.06 6.25-4.85 3.259-9.23 4.454-14.9 5.625-3.53 1.017-5.24 3.026-7.6 5.75-2.18.59-2.18.59-5 1l-3.42.527c-7.59.826-12.98.92-19.42-3.71-10.73-9.039-10.73-9.039-11.47-17.27l-.13-3.797c-.19-4.31-.48-8.217-2.12-12.25-5.79-15.55 1.53-35.524 6.56-50.5l1.5-2.875c1.47-3.056 2.1-5.64 2.81-8.938 1.22-5.234 3.12-8.62 6.28-12.902 2.08-3.368 2.79-6.873 3.69-10.7.7-2.496 1.57-4.377 2.91-6.585 2.07-2.844 2.07-2.844 1.81-6-4.3.417-4.3.417-7.88 2.625-3.4 2.202-6.22 1.09-10.12.375l-1.13 1.813c-2.3 2.692-4.7 3.665-7.87 5.187l-1.5 1.688c-1.5 1.312-1.5 1.312-4.38 1.562-2.79-.223-5.4-.61-8.12-1.25l-.56 3.625c-1.1 4.241-2.81 6.462-6.24 9.14-3.39 1.903-6.99 2.584-10.76 3.481-3.51 1.084-4.6 2.61-6.44 5.754-5.27 8.538-5.27 8.538-9.06 10.938-3.24 2.273-3.77 3.474-5.32 7-2.12 4.642-4.07 6.502-8.53 8.855-2.3 1.329-3.98 2.87-5.9 4.707-3.09 2.831-5.93 4.378-9.82 5.938-5.02 2.074-7.17 4.412-10.11 8.886-1.26 1.676-1.26 1.676-3.82 2.738-2.6-.066-4.93-.416-7.44-1.062-2.38 2.708-3.94 4.817-5.13 8.25-2.24 5.544-6.99 9.513-11.87 12.75-3.07.72-4.84.527-8 0l-.91 3.598c-2.14 5.712-6.5 7.9-11.59 10.84-.87.527-1.73 1.055-2.63 1.6-8.07 4.856-14.39 5.762-23.87 4.962-3.38-1.75-3.38-1.75-6-4-2.03-1.056-4.09-2.017-6.17-2.973-4.26-2.388-5.57-5.362-7.33-9.84-1.3-3.276-2.54-6.26-4.31-9.312-1.5-3.634-1.36-6.595-1.22-10.484.11-2.551.11-2.551-.6-5.641-.46-3.414.55-5.51 1.63-8.75l-.52-2.612c-.63-4.43.07-8.215.85-12.591l.45-2.66c.32-1.853.64-3.706.97-5.557.5-2.805.97-5.612 1.45-8.42.31-1.809.63-3.617.94-5.426l.43-2.504c.76-4.269 1.73-8.35 3.03-12.49 1.09-3.526 1.76-6.587 1.69-10.31l-.03-2.774-.07-2.781-.04-2.898c-.04-2.326-.09-4.652-.15-6.977-4.68-1.38-9.16-2.407-14-3l-1.21 2.152-1.6 2.785-1.59 2.778C2612 595 2612 595 2609 596l-2.93-.723L2603 595c-2.27 1.867-2.27 1.867-4.13 4.563-4.18 5.075-8.17 7.526-14.17 10.085-2.86 1.434-4.5 3.063-6.7 5.352-1.82 1.02-1.82 1.02-3.69 1.813-4.31 2.016-7.77 4.765-11.43 7.796C2561 626 2561 626 2559 626l-2 6-2.88.188-3.12.812c-.67 1.664-1.34 3.33-2 5-3.11 2.422-5.99 4-10 4l-.56 2.75c-1.99 4.495-4.04 5.206-8.44 7.25h-2l-.81 2.688c-1.16 3.22-2.08 5.622-4.19 8.312-2.92.488-2.92.488-6.19.313l-3.29-.137L2511 663l-.34 2.02c-3.04 14.227-15.01 23.556-25.19 33.173-5.05 4.906-8.58 9.24-11.45 15.675-1.33 2.78-3.02 4.507-5.4 6.445l-2.35 1.925L2464 724l-1.93 1.605c-2.61 2.073-4.81 3.335-8.07 4.082-5.76-1.32-8.68-4.626-11.81-9.523-4.26-8.146-4.68-14.223-3.19-23.164l.39-3.84c.56-4.497 1.83-8.633 3.3-12.91l.8-2.385c2.3-6.597 5.19-12.72 8.51-18.865 5.96-10.932 5.96-10.932 8-23l-2.82 1.785c-1.24.76-2.49 1.52-3.74 2.278l-1.85 1.181c-3.51 2.098-5.21 2.767-9.43 2.643C2439 643 2439 643 2437 640.75c-2.83-10.611.49-21.436 5.68-30.773 3.68-6.012 6.6-9.948 13.19-12.664 4-1.959 5.77-4.218 8.24-7.836 5.94-7.797 13.67-14.594 21.11-20.922 3.08-2.695 5.92-5.63 8.78-8.555l1.46-1.242c2.38-2.718 3.83-5.91 5.41-9.133l1.07-2.14c2.72-5.55 4.94-11.161 6.95-17.008C2510 528 2510 528 2513 526c1.09-1.995 1.95-4.032 2.84-6.125 1.16-1.875 1.16-1.875 3.24-2.867L2521 516c.63-1.874.63-1.874.75-4.125 1.51-9.192 6.75-17.314 11.17-25.395 5.79-10.65 10.79-21.608 15.79-32.653 1.76-3.86 3.59-7.687 5.41-11.514 3.02-6.323 5.78-12.735 8.5-19.188 4.55-10.698 9.57-20.141 16.49-29.502 3.78-5.225 6.79-10.734 9.67-16.498 2.27-4.506 4.84-8.642 7.68-12.81 2.58-3.878 4.88-7.92 7.23-11.94 4.17-7.066 8.61-13.74 13.58-20.268 3.27-4.346 5.84-8.832 8.33-13.677 1.89-3.276 4.24-5.902 6.81-8.649 1.81-1.922 1.81-1.922 3.59-5.093 6.18-8.302 15.97-5.922 24.37-2.188Z"/><path fill="#4FCEDF" d="M2075 336c4 3.195 5.26 6.847 6.62 11.625l.64 2.167c.59 2.066 1.17 4.135 1.74 6.208l.87 2.922c1.43 5.54.8 8.949-1.13 14.273-1.44 5.479-.96 11.184-.74 16.805 4.4.17 7.13.015 11-2 2.02.234 2.02.234 4.25.75 7.24.943 13.35-2.3 19.91-5.003 5.71-2.321 10.77-3.92 16.96-3.684 4.42.15 6.71-.796 10.46-2.977 4.49-2.014 9.41-2.616 14.22-3.473 3.08-.44 3.08-.44 5.2-1.613 4.55-.04 8.67.16 12.56 2.625 1.98 3.261 2.26 5.55 2.44 9.375-.84 3.165-2.18 6.005-3.63 8.938-.4.826-.8 1.653-1.21 2.505-4.15 8.196-9.64 14.968-15.68 21.837-2.07 2.403-3.95 4.937-5.86 7.47-3.83 4.783-7.29 7.833-13.59 8.621-3.03-.371-3.03-.371-5.08-2.375a645.54 645.54 0 0 1-3.63-5.125c-2.31-2.272-2.31-2.272-6.05-1.789-1.43.272-2.85.578-4.27.918l-2.04.488c-2.16.562-4.31 1.149-6.46 1.762-7.51 2.054-15.06 3.763-22.69 5.313-3.94.809-7.87 1.62-11.81 2.437l-2.54.527c-2.22.47-4.44.966-6.65 1.473l-3.67.813c-7.74 2.926-12.08 11.364-16.14 18.187l-2.76 4.023a102.999 102.999 0 0 0-5.95 10.055l-1.34 2.578c-.89 1.739-1.76 3.484-2.63 5.235-2.77 5.286-5.17 8.307-10.56 11.004-2.12 1.328-2.78 2.514-3.89 4.73-2.22 4-3.83 4.478-7.87 6.375-1.87 1.881-3.38 3.893-5 6l-1.46 1.427c-3.13 3.193-5.46 7.077-7.98 10.76l-1.73 2.502c-5.22 7.613-8.93 15.07-11.83 23.811-1.71 5.17-3.61 9.934-6.28 14.695-1.04 2.593-.36 4.756.18 7.422.14 3.323-.83 5.972-1.84 9.133-1.46 4.654-2.27 8.44-2.06 13.313.24 5.828-1.13 10.545-3.03 16.027-3.65 10.932-4.21 24.601-2.41 35.972C1971 644 1971 644 1970 646c.56 7.298 4.73 12.663 8.94 18.313 5.22 7.04 8.34 12.99 10.06 21.687l.75 3.5c.9 12.67 1.25 26.94-6.75 37.5-3.72 3.446-6.56 4.283-11.5 4.438-4.55-.185-7.66-.848-11.5-3.438l-2.94-1.938c-8.29-7.283-11.77-18.992-14.87-29.187l-1.16-3.629c-3.13-10.014-5.39-19.169-5.09-29.684.22-5.859.22-5.859-.94-11.562-.5-8.955.18-18.011.64-26.956l.14-2.712.14-2.696c.08-2.56.01-5.084-.07-7.644-.03-5.56 1.45-10.407 3.09-15.68 2.34-7.96 3.75-15.22 3.86-23.511.2-2.801.2-2.801 2.2-5.801-1.96 1.935-3.92 3.872-5.88 5.813l-1.68 1.658-1.62 1.611c-.74.73-.74.73-1.49 1.476-1.56 1.612-1.56 1.612-3.33 4.442h-4c-2.21 3.017-4.08 6.081-5.94 9.316-2.84 4.63-5.27 6.63-10.24 8.78-2.6 1.292-3.86 3.067-5.45 5.466-2.72 3.775-4.83 5.923-9.37 7.438h-4l-.25 2.75c-.86 3.737-1.71 4.97-4.75 7.25l-2.44.25c-3.71 1.086-4.55 3.463-6.35 6.742-2.01 3.332-3.49 4.767-7.21 6.008-1.17 1.701-1.17 1.701-2.19 3.75-2.33 3.956-4.71 5.841-8.75 7.95-5.89 3.715-10.29 9.89-14.85 15.07L1843 665h-2l-.73 1.828c-1.53 2.623-2.96 3.425-5.58 4.922-3.42 2.14-5.3 3.816-7.19 7.375-2.31 4.182-4.78 5.247-9.16 6.871-2.55 1.094-4.38 2.451-6.53 4.191-3.21 2.555-5.61 3.603-9.81 3.813l-.23 2.34c-.77 2.66-.77 2.66-2.67 4.101l-2.48 1.121-2.71 1.239a216.254 216.254 0 0 1-11.66 4.402c-2.25.744-2.25.744-4.25 1.797-7.51.735-13.65-.103-20.59-3.016-2.51-1.122-2.51-1.122-5.79-1.609-4.46-2.339-5.68-6.91-7.62-11.375l-1.64-2.879c-1.61-3.705-1.6-6.292-1.42-10.309.35-5.248.35-5.248-1.94-9.812-.26-1.878-.26-1.878-.27-3.992l-.01-2.37.03-2.513.01-2.562c.1-7 .86-13.691 2.24-20.563l-1.76 1.242c-6.72 4.639-6.72 4.639-10.49 5.508-4.03 1.831-4.71 4.853-6.46 8.777-1.85 3.547-4.1 5.112-7.29 7.473l-1.38 2.063c-2.17 2.594-4.67 3.528-7.71 4.925-2.1.977-2.1.977-3.91 3.2-2 1.812-2 1.812-5.88 2-2.75.222-3.76.387-5.59 2.515-.93 1.559-1.86 3.124-2.78 4.695-5.58 8.312-14.91 14.507-22.75 20.602l-3.16 2.508c-5.53 4.356-11.08 8.441-17.2 11.941-2.57 1.507-5.04 3.12-7.51 4.765-5.71 3.778-11.51 7.161-17.63 10.224l-2 .999c-11.75 5.742-21.44 5.768-33.69 1.764-7.65-2.687-15.11-5.585-18.81-13.201-1.01-3.009-1.83-6.055-2.63-9.125-.43-1.607-.85-3.214-1.29-4.82l-.56-2.141c-.45-1.654-.98-3.287-1.52-4.914-.08-2.357-.11-4.716-.1-7.074l.01-2.072c0-2.18.01-4.361.03-6.542 0-1.48.01-2.96.01-4.439.01-3.624.03-7.249.05-10.873l6-2-.88-3.813c-1.09-10.11 7.96-19.714 13.88-27.187l1.67-1.59c1.66-1.552 1.66-1.552 2.39-4.972 1.8-5.263 5.63-8.387 9.6-12.13 2.48-2.268 2.48-2.268 4.28-5.37 2.74-3.908 6.21-6.382 9.95-9.325 3.38-2.751 6.34-5.847 9.36-8.988 8.42-8.659 17.92-15.817 28.67-21.332 2.55-1.587 4.49-3.509 6.64-5.606 5.76-5.356 12.11-8.38 19.17-11.63 2.41-1.131 4.8-2.294 7.17-3.487l4.97-2.445 2.31-1.156c4.8-2.315 9.22-3.525 14.46-4.441 3.61-.807 6.37-2.357 9.61-4.153 4.52-2.508 7.54-3.92 12.75-3.375l2.37 1.188c3.07.947 3.56.613 6.38-.625 4.67-1.958 8.39-1.931 13.25-.563 6.38 2.672 10.2 6.73 13 13 2.49 7.13 3.78 14.564 5 22 4.36-1.507 5.63-4.349 7.81-8.25 4.28-7.288 8.68-12.54 16.89-15.219 7.53-1.739 15.05-2.457 22.3.469 3.4 2.973 5.75 6.291 6.18 10.894.52 18.083-2.93 32.357-15.68 45.981-5.17 6-7.02 12.786-9.12 20.333-2.06 7.363-2.06 7.363-4.53 10.632-3.01 5.135-2.61 10.56-2.73 16.41l-.13 3.625c-.16 4.566-.16 4.566.01 9.125l2 2c7.65-3.25 13.03-6.484 18.27-12.973 2.23-2.609 4.88-4.145 7.73-6.027 1.17-1.31 2.32-2.643 3.44-4 3.19-3.819 6.17-5.719 10.56-8 2.09-1.717 3.09-3.158 4.5-5.5 2.22-3.699 3.87-5.174 7.75-7.188 5.24-2.89 8.67-7.575 12.24-12.28 3.13-3.987 5.52-5.895 10.48-7.134 3.01-1.335 4.75-3.52 7.03-5.898 1.28-1.206 2.56-2.404 3.85-3.594l2.08-1.933c1.42-1.317 2.85-2.633 4.28-3.946 3.58-3.335 6.76-6.661 9.79-10.527l2.06-.875c3.12-1.812 3.66-4.868 4.94-8.125 2-2 2-2 4.44-2.875 2.93-1.287 3.69-2.609 5.56-5.125l2-.348 2-.652c.89-1.957.89-1.957 1.44-4.375 2.32-6.4 6.84-9.618 11.97-13.695 8.73-6.965 16.39-15.422 23.59-23.93.92-1.048 1.84-2.095 2.77-3.14 10.36-11.788 18.57-23.792 25.31-37.97 1.37-2.812 2.84-5.562 4.29-8.327 2.43-4.827 3.74-9.241 4.63-14.563l-2-1c-3.1 1.446-6.06 3.1-9.05 4.75-3.16 1.34-3.87 1.446-6.95.25-2.45-.86-2.45-.86-5-1-2.29 1.35-2.29 1.35-4.25 3.375l-2.08 1.96L1949 464c-1.58.187-3.16.33-4.75.43l-3.01.215-3.24.23c-14.66 1.165-27.67 2.836-41.31 8.493-6.42 2.64-12.87 4.372-19.63 5.905-2.95.578-2.95.578-5.06 1.727-1.67.13-3.33.23-5 .313-4.06.322-7.22 1.02-10.94 2.687-3.59 1.597-6.45 2.226-10.36 2.363-7.19.507-13.89 2.263-20.78 4.228-2.11.592-4.22 1.169-6.34 1.731-11.47 3.165-19.25 8.284-28.12 16.139-3.09 1.936-4.87 2.047-8.46 1.539-5.04-3.486-8.49-10.192-10-16-1.34-10.293-.02-18.455 6-27 11.03-13.085 29.52-16.675 45.61-18.78 6.42-.902 11.63-2.661 17.58-5.232 2.89-1.018 4.84-1.165 7.87-.988 4.02.217 6.53-.465 10.19-2.125 11.6-5.259 25.31-9.597 38.12-9.477 2.61-.395 3.97-1.027 6.25-2.27 4.96-2.616 10.04-3.527 15.5-4.566 6.74-1.348 13.06-2.812 19.44-5.375 5.97-2.339 11.02-2.526 17.38-2.07 3.55-.136 5.18-1.106 8.06-3.117 2.47-.925 3.62-1.098 6.19-.438 7.91 1.23 15.53-2.992 22.58-6.125L1996 405l2.64-1.18c2.45-.852 4.28-.954 6.86-.945 2.72-.265 4.03-.407 5.98-2.363 1.31-2.12 2.43-4.272 3.52-6.512 2.98-5.586 5.89-10.063 10.62-14.313 5.92-5.547 9.36-12.276 13-19.464 3.11-5.895 5.02-8.19 11.38-10.223 1.37-1.974 2.71-3.974 4-6 11.94-12.332 11.94-12.332 21-8Zm-377.97 256.207c-3.11 1.215-6.32 2.061-9.53 2.98-7.79 2.535-14.11 6.762-20.82 11.387-2.8 1.924-5.51 3.193-8.68 4.426-1.13 1.393-2.25 2.8-3.36 4.219-4.47 4.847-10.47 8.475-16.08 11.906-3.93 2.88-6.03 6.288-7.56 10.875-1.67 1.543-1.67 1.543-3.75 3.188-2.92 2.45-4.91 4.601-6.75 7.937-1.81 3.22-3.37 4.588-6.63 6.313-3.31 1.854-4.42 3.1-5.5 6.75l-.59 2.324c-1.46 4.652-4.3 10.005-7.78 13.488-.59 6.554-.56 12.349 3 18 7.18 2.474 14.3-2.204 20.69-5.306 3.01-1.5 6.01-3.027 9-4.569l2.91-1.495a129.186 129.186 0 0 0 22.46-14.943c4.92-3.89 10.28-6.925 15.69-10.052 5.21-3.006 10.3-6.22 15.25-9.635l3.12-2c5.97-4.15 9.65-7.409 12.88-14a91.102 91.102 0 0 1 6-5c1.19-.992 2.38-1.992 3.56-3l1.63-1.375c2.36-2.12 4.57-4.377 6.81-6.625l5.41-5.379 4.63-4.605c1.06-1.055 2.12-2.11 3.18-3.162 1.55-1.534 3.09-3.07 4.63-4.608l2.78-2.76c2.94-3.049 2.94-3.049 5.37-6.486l-1-3-1 1c-2.66.1-5.28.139-7.94.125l-2.25.012c-5.56-.01-5.56-.01-7.81-1.137-12.02-1.91-20.83-.421-31.97 4.207Zm-166.72-317.519c4 .339 5.38 1.183 8.69 3.312 6.13 2.637 10.43 3.498 16.91 1.375 2.53-.454 3.89-.04 6.28.875l2.1.766C1566 282 1566 282 1567 285l1.57-.691c3.25-1.34 5.76-2.324 9.3-2.246l2.13.937.75 2.047L1582 287c2.82.367 2.82.367 6.06.188 5.65.225 8.21 1.221 12.19 5.25 1.89 2.143 3.47 4.012 4.75 6.562l2-.438c3.66-.685 7.31-1.124 11-1.562 2.19 2.509 3.28 4.74 4.25 7.875 1.45 4.187 3.68 5.978 7.12 8.625 2.52 2.321 3.32 5.376 4.63 8.5l2.92 2.215c3.75 2.99 4.67 6.252 5.83 10.785 1.47 5.432 1.47 5.432 3.39 10.715.94 2.492 1.01 4.206.86 6.847-.21 3.219-.21 3.219.98 6.12 2.16 4.933 1.43 10.841 1.44 16.17.02 2.245.07 4.489.12 6.734.11 9.802-1.2 17.034-7.49 24.836-5.18 3.99-11.76 7.896-18.43 8.14-8-1.242-11.82-5.419-16.62-11.562-2.46-3.691-2.31-5.321-1.75-9.578 1.36-4.391 4.5-7.294 7.75-10.422l2-2c1.98-.717 3.98-1.384 6-2 .93-2.963 1.29-4.417-.13-7.246-2.31-3.405-4.87-6.512-7.56-9.629l-1.61-1.88c-3.42-3.94-6.94-7.507-11.08-10.718-1.62-1.527-1.62-1.527-2.75-4.117-2.16-2.783-2.68-2.843-6.02-3.379-1.74-.196-3.48-.372-5.23-.531-7.91-.913-15.57-2.233-23.31-4.125l-2.73-.662c-6.26-1.552-6.26-1.552-8.58-2.713-14.96-2.977-29-3.3-44-1-2.77.409-5.54.815-8.31 1.22-1.82.267-3.64.54-5.46.818-4.44.659-8.6 1.077-13.11.837-5.21-.206-9.56 1.498-14.37 3.281-4.3 1.536-8.01 2.13-12.56 2.219-9.76.355-18.41 4.641-27.23 8.52-4.22 1.754-7.14 2.066-11.77 1.88-4.82.495-9.05 3.279-13.25 5.538l-5.73 2.988-2.71 1.42c-8.49 4.34-8.49 4.34-11.56 4.154-1.63-.736-3.23-1.548-4.82-2.375-3.12-1.498-5.7-2.093-9.12-2.5l-.04 1.793c-.27 4.343-.48 6.605-3.27 10.082L1362 375l-1.87 1.582c-2.42 1.608-4.02 1.89-6.88 2.23-4.88.844-7.51 2.63-11.27 5.747-2.09 1.522-3.82 2.209-6.29 2.941-8.81 2.637-15.22 6.211-20.29 13.926-1.4 1.574-1.4 1.574-5.09 2.136C1307 403 1307 403 1304 402l-.94 2.375C1302 407 1302 407 1301 409c-1.34.422-2.7.798-4.06 1.125-4.9 1.533-7.37 3.976-10.77 7.707-2.4 2.396-4.92 4.154-7.73 6.043-4.83 3.38-7.68 6.881-10.82 11.813-1.58 2.26-3.09 3.737-5.25 5.437-3.21 2.546-4.96 5.2-6.98 8.742-1.63 2.496-3.55 4.443-5.64 6.57-3.43 3.75-4.73 6.492-5.2 11.52.67 3.053 2.01 4.104 4.45 6.043a97.724 97.724 0 0 0 7.19 3.188c6.72 2.722 6.72 2.722 7.81 3.812 1.73.25 3.46.475 5.19.688 5.11.822 9.67 2.161 14.43 4.125l3.54 1.457c3.21 1.958 3.9 3.154 4.84 6.73l2.12-1.938c3.22-2.307 4.94-2.982 8.88-3.062 3.28 1.325 5.5 2.5 8 5l1-1c2.3-.072 4.57.004 6.87.063 2.18.085 2.18.085 4.13-1.063 4.92-.301 9.08.403 13.81 1.57 2.4.557 2.4.557 5.75.305 3.45.125 4.59.574 7.5 2.188 3.74 2.045 5.75 2.12 9.94.937 3.12-.75 3.12-.75 6-1l1.88 1.52c2.01 1.715 2.01 1.715 4.45 1.414 1.65-.33 3.29-.663 4.94-1 3.3.08 5.11 1.374 7.87 3.089 3.08 1.618 6.18 1.784 9.61 2.102 1.41.153 2.82.308 4.23.465 2.41.249 4.82.489 7.22.726 7.07.938 10.95 3.49 15.8 8.684l2-2c7.85-1.591 14.53 1.07 21.71 3.856 5.25 1.971 9.64 2.677 15.29 2.16l2-.016c2 2 2 2 2.19 5.04l-.07 3.585-.05 3.602L1465 532l1.91-1.348c4.05-2.677 7.01-4.563 11.9-4.965 12.97 3.054 24.65 13.021 32.63 23.375 2.68 4.4 4.07 9.206 5.5 14.125l.68 2.343c1.2 4.55 1.46 7.801.38 12.47l.12 3.813c.09 5.403-1.62 10.525-4.27 15.21-1.2 2.79-.41 4.93.35 7.782-.27 2.993-1.89 4.37-3.84 6.54-2.25 2.744-3.59 5.907-5.11 9.092-2.94 5.866-5.87 9.707-11.47 13.364-1.93 1.086-1.93 1.086-2.78 3.199 3.9-1.001 6.84-2.483 10.1-4.781 4.75-3.212 9.65-5.689 14.84-8.094l2.93-1.378c2.16-1.018 4.33-2.033 6.5-3.046 3.99-1.867 7.97-3.761 11.95-5.654 25.18-11.96 25.18-11.96 37.87-17.485l2.46-1.088c4.44-1.899 8.47-3.142 13.35-3.474 2.44 1.063 2.44 1.063 4 3 .95 5.347-1.12 7.672-4 12-.6 2.183-.6 2.183-1 4.5-.95 4.826-2.44 8.71-6.64 11.648-1.75 1.013-3.56 1.934-5.36 2.852l-2.75 1.688C1573 629 1573 629 1570 630l-1 3-2.06.813c-2.82 1.136-4.52 2.324-6.88 4.187-4.3 3.31-7.89 4.877-13.37 5.188-3.82.841-4.97 1.63-7.88 4.062-6.46 5.35-13.77 8.416-22.06 9.625-4.9.814-7.32 3.005-10.84 6.383-6.13 5.584-14.06 6.918-21.91 8.742-6.34 1.48-10.51 3.03-15.25 7.54-1.9 1.583-3.58 2.365-5.88 3.273-4.13 1.669-7.4 3.925-11 6.562-5.05 3.675-9.96 5.973-15.86 8.114-10.49 4-19.77 10.876-28.95 17.23-2.75 1.885-2.75 1.885-5.49 3.77-5.25 3.508-10.81 6.005-16.58 8.534-5.5 2.507-9.3 5.738-13.6 10.012-3.5 2.874-7.19 3.797-11.49 5.008-5.45 1.798-9.87 5.193-14.16 8.925-2.87 2.13-5.17 3.075-8.57 4.11l-3.39 1.067-3.59 1.105c-7.67 2.44-14.99 4.833-22 8.813-21.16 11.514-48.78 14.374-72.16 19.152l-2.45.504c-12.94 2.618-12.94 2.618-17.58 1.281-2.15-.025-4.29-.045-6.44-.063-8.27-.528-14.31-3.532-20.56-8.937-2.58-4.785-2.9-9.689-2-15 5-10.615 20.73-15.399 30.79-19.716 4.74-2.055 9.1-4.304 13.41-7.149 3.67-2.318 6.93-3.455 11.17-4.322 6.28-1.5 11.65-4.143 17.31-7.114 3.6-1.842 7.24-3.3 11.02-4.726 2.44-1.032 4.6-2.291 6.86-3.66 3.11-1.818 5.28-2.556 8.88-2.688 5.17-.279 8.08-2.928 12.08-5.992 3.1-2.042 5.71-2.477 9.32-3.043 3.33-.909 5.57-2.914 8.14-5.152 2.02-1.438 2.02-1.438 4.73-2.34 3.4-1.137 6.24-2.633 9.35-4.374 8.3-4.621 16.75-8.47 25.63-11.849l3.04-1.182c4.31-1.593 8.01-2.92 12.64-2.732 4.21.045 5.66-.764 9-3.211 3.56-2.456 6.74-4.323 10.82-5.75 4.43-1.646 7.33-3.854 10.75-7.078 2.26-2.109 4.63-4.01 7.06-5.922l2.54-2.04c1.56-1.24 3.12-2.463 4.7-3.67 4.7-3.771 6.96-7.278 9.42-12.743 1.92-3.651 4.55-6.394 7.36-9.387 2.42-2.634 4.5-5.434 6.6-8.324 1.29-1.714 2.65-3.3 4.07-4.899 3.19-4.053 4.75-8.266 6.37-13.125.94-2.812.94-2.812 2.13-4.937 1.05-2.425.52-3.36-.19-5.875l-.4-2.227c-1.81-8.116-6.52-12.387-12.6-17.773l-2.81-2.813c-3.94-2.704-7.97-4.1-12.45-5.734-4.27-1.61-8.38-3.522-12.49-5.515l-2.13-.996c-1.98-.977-1.98-.977-5.12-2.942-.7-2.123-.7-2.123-1-4l-3.21.73c-6.19.766-11.66-1.504-17.48-3.418-8.47-2.675-16.72-4.93-25.5-6.312-8.88-1.444-20.21-4.398-26.81-11-3.87-.131-7.12-.229-10.88.75-4.77.382-9-1.36-13.12-3.75l-1-3-2.31.36-3.13.39-3.06.422c-4.04-.199-6.48-1.418-10.08-3.152-4.12-1.734-8.4-2.271-12.8-2.957-9.4-1.63-17.09-4.2-25.18-9.313-3.41-1.734-4.45-1.863-8.07-1.875-7.02-.428-11.8-5.228-16.9-9.622a107.64 107.64 0 0 0-3.87-3.12c-7.3-5.841-12.02-13.348-13.42-22.66-.32-4.312.06-8.221.82-12.473l.68-3.883c2.86-14.596 9.23-25.904 18.35-37.523 1.64-2.157 2.97-4.206 4.22-6.594 1.88-3.218 3.65-4.962 6.75-7h2l.72-2.692c1.41-3.646 2.94-5.485 5.68-8.242l2.7-2.716 2.84-2.788 2.73-2.775c6.75-6.718 13.82-12.35 22.58-16.225 2.72-1.545 3.72-2.613 5.62-5 12.28-14.709 31.63-24.556 49.13-31.562 1.23-.527 2.45-1.057 3.68-1.59 4.84-2.054 9.04-3.41 14.32-3.41l.75-2.25c1.48-3.255 2.31-4.67 5.25-6.75 1.78-.343 3.58-.629 5.37-.875 4.06-.58 6.08-1.048 8.69-4.25 1.35-1.633 1.35-1.633 2.94-2.875 2.37-.18 2.37-.18 5 0 2.6.23 2.6.23 5 0 1.38-1.444 2.75-2.898 4.03-4.43 2.76-2.202 5.74-2.721 9.12-3.445 5.86-1.358 11.61-2.893 17.35-4.703l2.12-.663c2.86-.894 5.71-1.794 8.56-2.706a816.39 816.39 0 0 1 6.38-2.006l3.76-1.193c2.97-.688 5.01-.936 7.98-.875 4.47.025 5.5-.867 8.64-3.917 4.06-3.542 6.79-4.989 12.15-5.32C1464 280 1464 280 1467 282c1.84-.204 3.68-.424 5.5-.719 2.97-.334 5.83-.241 8.81-.156 5.49.063 9.93-.862 15.14-2.445 8.93-2.383 18.54.025 26.55 4.32l.87-2.875c1.49-4.14 2-5.017 6.44-5.437Zm-223.39 454.425c-1.92.887-1.92.887-5.67 1.2-11.78 1.191-22.03 5.777-32.15 11.659-9.08 5.265-18.58 9.626-28.1 14.028v1c9.49-.452 18-3.169 27-6l3.95-1.23c1.94-.604 3.87-1.21 5.8-1.826a351.13 351.13 0 0 1 11.35-3.381c11.89-3.32 11.89-3.32 22.74-9.118 4.9-3.272 10.41-5.615 15.72-8.132 2.56-1.077 2.56-1.077 3.44-3.313-8.93-.622-16.17.88-24.08 5.113Z"/><path fill="#9C71E0" d="M2422.25 274.688C2425 276 2425 276 2428 278l3.77-.695c2.45-.378 3.77-.529 6.02.555 1.74 1.334 3.32 2.744 4.9 4.265l1.64 1.477c15.23 13.815 15.23 13.815 15.82 24.023.07 6.139-.34 12.175-.94 18.281-.3 4.404-.14 8.776.05 13.184-.39 4.339-2.23 6.883-5.26 9.91-.67 2.799-1.27 5.613-1.81 8.438-1.31 6.344-2.97 11.791-5.91 17.593-1.68 3.894-2.66 7.869-3.72 11.969-3.26 12.33-9.37 21.353-17.19 31.257-6.69 8.508-12.7 16.924-17.59 26.599-2.24 4.355-4.75 7.74-8.13 11.25-1.91 2.193-3.23 4.484-4.65 7.019-2.6 4.534-5.55 8.055-10 10.875h-2l1 3.313c.54 4.39-.86 6.63-3.37 10.187-5.49 6.909-11.65 14.27-20.73 15.871-6.56.21-11.53-1.626-16.9-5.371-5.53-5.192-9.07-9.314-9.44-17.063.17-10 6.47-16.564 13.26-23.313C2366.53 439 2366.53 439 2377 439l-.25-1.688c-.3-3.695-.38-6.307 1.63-9.515A90.703 90.703 0 0 1 2384 422l2.56-2.563L2389 417c1.51-1.8 3-3.616 4.47-5.45 1.53-1.55 1.53-1.55 3.46-2.395 2.51-1.401 3.34-2.714 4.8-5.182l1.43-2.4 1.47-2.51 2.91-4.903 1.29-2.199c1.01-1.684 2.08-3.328 3.17-4.961l.19-3.813c.25-2.687.41-3.807 2.39-5.69l1.92-1.372c2.43-1.8 3.37-2.55 4.04-5.543.1-1.744.17-3.489.23-5.234.33-3.377 1.77-5.107 4.23-7.348h2l.77-3.875 1.04-5.125.5-2.543c.84-4.068 1.78-7.912 3.3-11.781 3.04-8.04 1.7-16.83-1.61-24.676-4.11-2.74-7.17-2.713-12-2-3.71 1.333-7.14 3.098-10.62 4.938-14.1 7.32-14.1 7.32-22.38 5.062l-1.37 2.625c-3.07 4.62-7.9 6.72-12.63 9.375-5.8 3.447-10.25 6.982-14.49 12.266C2356 344 2356 344 2353 346l-1.19 2.375c-1.92 2.79-2.64 3.163-5.62 4.438-4.95 2.209-7.27 5.771-10.19 10.187-1 1-1 1-4.06 1.063L2329 364l.63 3.375c.02 3.336-.52 4.49-2.64 7.137a234.851 234.851 0 0 1-5.39 5.086c-2.21 2.039-4.01 4.04-5.85 6.402-2.11 2.593-2.59 2.955-6 3.938L2307 391c-1.05 3.516-1.05 3.516-1.44 5.977-.88 3.209-3.14 4.842-5.56 7.023l-1.44 2.438c-2.1 3.453-4.57 5.829-7.56 8.562h-2l-.81 1.938C2287 419 2287 419 2284 420l-.12 2.5c-1.17 4.667-3.56 8.04-6.88 11.5l-3 1-.12 1.625c-.95 7.15-3.95 12.438-7.56 18.537-2.11 3.597-3.9 6.927-5.07 10.963-1.98 6.793-6.58 10.4-12.38 13.992-1.87.883-1.87.883-4.87.883l.68 1.8c1.24 4.134 1.89 6.931.07 10.962-1.23 1.862-2.5 3.698-3.81 5.508-1.83 2.576-3.17 5.06-4.5 7.918-1.59 3.347-3.32 6.029-5.69 8.875-2.21 2.806-3.07 4.555-3.25 8.125-.31 5.936-2.96 10.65-5.57 15.902a242.267 242.267 0 0 0-2.93 6.312l-1.04 2.28c-.66 1.466-1.32 2.935-1.98 4.406-1.59 3.455-3.03 5.968-5.57 8.873-2.99 3.764-3.87 7.12-4.97 11.726-2.07 8.619-2.07 8.619-6.44 11.313-2 4.394-3.1 8.374-3.87 13.125-.89 4.927-2.62 7.364-6.13 10.875l2 2c.94 5.967-.28 10.65-3 16-.83 1.666-1.67 3.333-2.5 5-.42.848-.85 1.696-1.29 2.57-3.15 5.63-3.15 5.63-3.96 11.805.64 1.628.64 1.628 1.75 2.625-.07 2.065-.2 4.129-.37 6.188l-.3 3.824c-.21 2.607-.43 5.214-.66 7.82l-.29 3.668c-.1 1.103-.19 2.207-.29 3.344-.09 3.198.28 6.026.91 9.156l-4 1c3 4.556 6.11 9.02 9.29 13.453 1.57 2.332 2.81 4.675 4.09 7.172 1.07 1.855 1.07 1.855 2.62 3.375 5.9 1.21 12.36-.425 18.13-1.75l2.3-.477c3.79-.849 6.94-1.842 10.27-3.875 3.34-1.923 5.2-2.404 8.99-2.523 3.64-.134 6.24-.33 9.31-2.375 1.5-1.873 1.5-1.873 2.81-4 2.97-4.127 5.14-4.974 10.19-6 7.21-1.996 11.23-6.137 15.99-11.65 3.05-3.476 5.52-5.527 9.76-7.225 3.35-1.675 6.18-3.954 9.13-6.25l1.73-1.348c2.24-1.76 4.38-3.513 6.39-5.527l3.19-.625c4.28-1.142 6.09-3.67 8.8-7.027 5.11-5.961 11.37-10.946 17.32-16.035 5.63-4.917 9.89-10.302 13.71-16.711C2342 613 2342 613 2343 612c2.26-.162 4.51-.254 6.77-.328 3.19-.96 3.62-2.836 5.23-5.672 2.41-2.02 2.41-2.02 5.06-3.813l2.66-1.832C2365 599 2365 599 2367 599l.25-2.188c1.48-5.558 5.47-8.554 10.06-11.687 3.55-2.484 6.59-4.916 9.5-8.125 2.47-2.632 2.84-2.955 6.63-3.438l2.56.438.52-1.863c1.98-6.621 1.98-6.621 4.36-9.074 2.12-1.063 2.12-1.063 4.62-1.688 3.55-1.95 4.15-4.58 5.51-8.281C2412 551 2412 551 2415 549c3.19-.125 3.19-.125 6 0l.04-1.828.15-2.422.1-2.39c1.03-3.442 2.72-4.419 5.71-6.36 2.52-1.134 4.98-2.165 7.56-3.125 4.94-1.843 4.94-1.843 9.72-4.059 2.85-1.352 4.78-.736 7.72.184 2.76 2.762 4.55 5.097 5 9l.5 3.75c-.02 4.839-2.6 7.013-5.85 10.32-1.94 1.965-1.94 1.965-2.46 5.367-1.64 4.928-4.77 7.163-8.68 10.45-5.13 4.19-5.13 4.19-7.76 10.05-1.48 4.432-3.79 5.57-7.77 7.723-2.86 1.933-4.04 4.383-5.7 7.34-2.73 4.266-6.36 7.43-11.22 8.875L2406 602l-.62 2.438c-2.75 7.103-6.36 12.21-12.8 16.25-1.94 1.607-2.55 3.064-3.52 5.375-1.42 3.243-2.42 4.436-5.68 5.812-7.43 3.137-13.28 9.791-17.13 16.75-1.1 1.965-1.1 1.965-2.25 3.375-3.06.188-3.06.188-6 0l-1.69 2.25c-2.66 3.161-3.75 3.284-7.62 4.313-6.39 2.071-8.17 5.659-11.14 11.44-2.08 4.027-4.27 6.863-7.55 9.997-2.69.688-2.69.688-5 0-1.81-2-1.81-2-3-4-1.69 1.637-1.69 1.637-3 4l.65 2.797c.35 3.203.35 3.203-1.17 6.055-5.09 6.153-9.48 10.493-17.48 12.148-1.67.055-3.33.055-5 0l-.69 2.75c-1.53 3.787-2.88 5.096-6.31 7.25l-2.46.367c-3.17.79-3.88 1.854-5.79 4.446-3.71 4.497-7.32 6.302-12.75 8.187l-2.26.867c-4.66 1.705-8.93 2.517-13.89 2.727-2.26.273-2.26.273-3.85 3.406-1.84.879-1.84.879-3.94 1.563-2.8.928-4.53 1.753-7.06 3.437-1.94.02-1.94.02-4-.188-2.1-.124-2.1-.124-4 .188-1.9 2.303-1.9 2.303-3 5-3 2-3 2-5.49 1.652l-2.82-.715c-5.14-1.069-7.07-.49-11.69 2.063-8.56 1.199-16.57-1.06-24.06-5.125-2.94-1.58-5.24-2.142-8.56-2.375-5.84-.452-9.38-3.206-13.19-7.5-2.19-3-2.19-3-2.63-5.25L2157 722c-1.99-.692-3.99-1.358-6-2-2.31-2.31-3.15-4.377-4.37-7.438-1.39-3.622-1.39-3.622-4.07-5.874-3.56-3.74-4.77-7.89-6.56-12.688l-1.13-3.024c-5.38-14.67-9.39-28.332-9.87-43.976l-.14-2.534c-.59-11.117.35-20.44 4.24-30.945 1.98-5.541 3.73-11.167 5.53-16.771l1.16-3.553c1.74-5.341 3.36-10.645 4.64-16.115 1.6-6.599 3.91-12.886 6.33-19.213.75-1.957 1.48-3.92 2.21-5.883l1.44-3.771c.64-1.684.64-1.684 1.29-3.403 1.21-2.616 2.2-3.923 4.3-5.812 1.01-2.384 1.01-2.384 1.81-5.063 2.68-7.723 6.3-14.24 12.19-19.937l2.13-2.688C2174 509 2174 509 2176 508l-.58-2.414c-1.81-8.67-1.81-8.67.08-13.086 2.5-2.5 2.5-2.5 5.5-4.188 3.34-2.575 3.68-3.617 4.94-7.5 2.36-7.17 5.34-12.822 12.18-16.48 2.91-1.233 5.88-2.344 8.88-3.332l-1.5-2.563c-1.7-3.899-2.04-6.228-1.5-10.437 2.84-5.21 6.61-6.292 12-8l-1.06-1.75c-1.14-2.726-.88-3.503.06-6.25 1.33-2.27 2.82-4.384 4.33-6.543a82.788 82.788 0 0 0 3.15-5.008c1.39-2.336 2.69-4.437 4.52-6.449 3.75-.875 3.75-.875 7-1 2.34-3.514 2.64-5.822 3-10l-.68-2.441c-.32-2.559-.32-2.559.94-4.875l1.87-2.246 1.96-2.375c1.91-2.063 1.91-2.063 4.6-4.125 2.39-2.002 2.92-3.039 4.12-5.813 2.7-5.876 7.71-8.586 13.04-11.89 3.65-2.588 6.57-5.512 9.65-8.735 9.83-10.298 9.83-10.298 15.24-10.707l2.57.394 2.62.356C2295 351 2295 351 2296 352v-3l-3-2c.42-4.933 2.42-6.722 6-10l1.58-1.707c8.64-9.236 19.46-16.225 30.19-22.785 2.02-1.369 3.45-2.674 5.04-4.508 2.19-2 2.19-2 5.25-1.938 2.5.796 4.68 1.633 6.94 2.938l-.56-2.563c.65-3.955 1.2-4.462 4.19-6.937 4.88-3.483 10.08-5.733 15.64-7.96a100.54 100.54 0 0 0 7.4-3.33c11.39-5.67 22.73-8.416 35.23-10.698 2.14-.52 3.88-1.285 5.85-2.262 3.25-1.25 3.25-1.249 6.5-.562ZM2294 356l-1 2h2l-1-2Zm-85 107 3 5 2-1v-3l-5-1ZM561 311c23.642 7.033 42.594 29.167 54.188 50.063 12.885 24.264 18.053 55.563 10.066 82.171L624 447l-.633 1.99c-6.62 20.57-18.611 37.432-33.367 53.01l-2.633 2.828c-11.004 11.574-24.02 20.59-37.05 29.72-11.08 7.772-21.844 15.648-31.669 24.98a112.737 112.737 0 0 1-5.71 4.968c-4.65 3.963-8.197 8.698-11.938 13.504l-2.18 2.773C488.794 593.978 484.48 607.478 486 624c2.549 13.232 11.147 26.091 21.871 34.16 20.865 13.664 44.972 15.014 68.754 10.09 52.491-11.595 97.856-43.518 126.924-88.656 9.039-14.58 17.192-30.228 22.451-46.594h2c-3.345 46.035-21.488 86.33-53 120l-2.64 2.84C646.093 683.436 609.94 701.856 573 710l-3.348.746c-29.363 5.276-61.417.802-86.411-15.923-22.264-15.645-36.572-37.568-42.553-64.01-4.051-26.507 3.33-51.002 18.312-72.813 10.506-14.279 22.985-27.167 37-38l1.976-1.535c10.165-7.844 20.647-14.828 31.663-21.418C542.962 489.068 555.52 480.487 567 470l1.562-1.425c18.79-17.383 31.289-39.495 32.641-65.477.683-35.063-14.261-63.696-37.93-88.614C561 312 561 312 561 311Z"/><path fill="#4FCEDF" d="M544.188 321.875c17.2 17.684 26.46 41.414 27.125 65.938C570.797 416.841 556.57 441.446 537 462l-1.535 1.618C527.217 472.253 518.599 479.907 509 487l-1.637 1.231c-9.11 6.84-18.727 12.782-28.433 18.734C449.226 525.197 422.08 547.313 412 582l-.742 2.543c-6.38 27.49 2.217 57.069 16.742 80.457 6.08 9.077 13.503 17.09 21 25-3 1-3 1-6.188-.555a211.522 211.522 0 0 1-3.812-2.32l-2.03-1.246C411.078 669.653 392.303 643.697 385 614c-6.41-30.1-2.045-60.992 14.724-87.09 15.814-23.663 35.996-41.95 59.393-57.87 25.671-17.5 57.535-40.504 65.488-72.474 2.324-15.115-1.49-28.043-10.14-40.34C505.19 343.757 490.228 335.743 475 333c-40.695-5.861-83.62 11.13-116.016 34.98C334.891 386.097 315.981 407.896 301 434l-1.12 1.928C293.79 446.49 289.326 457.618 285 469h-2c3.301-48.635 24.61-94.97 61-128 54.765-47.653 141.55-75.643 200.188-19.125Z"/><path fill="#003666" d="M928.26 715.123c4.77 1.527 4.77 1.527 6.627 2.288l2.126.861 2.245.931 2.376.969c2.5 1.02 4.995 2.049 7.491 3.078l4.96 2.027A3322.08 3322.08 0 0 1 980 736c-5.057 6.11-10.56 11.698-16.175 17.295l-3.096 3.1c-2.823 2.825-5.65 5.647-8.477 8.469-3.052 3.048-6.102 6.1-9.153 9.15a29582.58 29582.58 0 0 1-15.847 15.84c-7.64 7.631-15.277 15.266-22.913 22.9-12.39 12.388-24.782 24.774-37.176 37.158A245694.823 245694.823 0 0 0 831.055 886l-2.25 2.248-11.17 11.167A673842.361 673842.361 0 0 1 725 992c-3-1-3-1-4.024-2.73l-.921-2.28-1.062-2.58-1.118-2.816-1.176-2.89c-1.244-3.064-2.471-6.134-3.699-9.204-.827-2.04-1.655-4.079-2.484-6.117-.798-1.971-1.595-3.943-2.391-5.914l-1.118-2.766-1.062-2.658-.921-2.299c-1.447-3.88-2.733-7.811-4.024-11.746 8.986-9.009 17.974-18.015 26.966-27.018 4.176-4.18 8.35-8.363 12.523-12.547 4.031-4.041 8.064-8.08 12.1-12.118l4.601-4.613c2.157-2.164 4.316-4.324 6.476-6.484l1.896-1.907c2.917-2.91 5.867-5.709 9.008-8.376 6.562-5.68 12.547-11.984 18.645-18.15l4.29-4.323c3.066-3.09 6.132-6.181 9.196-9.273 4.844-4.887 9.696-9.767 14.55-14.644l2.485-2.499 5.03-5.055c11.291-11.348 22.578-22.7 33.843-34.075a9192.463 9192.463 0 0 1 22.873-23.018c4.041-4.05 8.071-8.11 12.09-12.181 3.772-3.824 7.56-7.63 11.361-11.426a661.16 661.16 0 0 0 4.163-4.21 567.464 567.464 0 0 1 5.694-5.708l1.652-1.715c2.723-2.654 3.937-3.683 7.818-3.537ZM737 26c6.11 5.057 11.698 10.56 17.295 16.175l3.1 3.096a9670.07 9670.07 0 0 1 8.469 8.477c3.048 3.052 6.1 6.102 9.15 9.153a29582.58 29582.58 0 0 1 15.84 15.847 70674.19 70674.19 0 0 0 22.9 22.913c12.388 12.39 24.774 24.782 37.158 37.176C862.94 150.874 874.97 162.91 887 174.945l2.248 2.25 11.167 11.17C931.28 219.24 962.141 250.119 993 281c-2.443 2.562-4.489 3.84-7.775 5.208l-2.933 1.233-3.163 1.297-3.254 1.347c-2.27.936-4.543 1.868-6.817 2.796a1507.302 1507.302 0 0 0-10.435 4.332c-2.206.906-4.412 1.81-6.62 2.713l-3.156 1.328-2.942 1.185-2.584 1.062c-2.966.638-3.752.043-6.321-1.501a78.02 78.02 0 0 1-3.96-3.713l-2.367-2.356-2.582-2.6-2.757-2.752c-2.527-2.522-5.047-5.05-7.567-7.58-2.717-2.726-5.44-5.446-8.163-8.167-4.717-4.716-9.43-9.435-14.14-14.157a28181.143 28181.143 0 0 0-20.445-20.468A69232.728 69232.728 0 0 1 841.85 207a108896.95 108896.95 0 0 0-32.22-32.261l-2.006-2.008-9.964-9.972c-27.56-27.58-55.112-55.167-82.659-82.759l1.438-4.334.809-2.438a130.44 130.44 0 0 1 2.622-7.058l1.012-2.516 1.06-2.615 1.117-2.765a5719.33 5719.33 0 0 1 2.322-5.732c1.187-2.928 2.368-5.858 3.548-8.788l2.263-5.59 1.067-2.651 1.002-2.46.874-2.158C735 29 735 29 737 26ZM2 311c3.423.651 6.438 1.468 9.65 2.826l2.7 1.133 2.877 1.225 2.983 1.259c2.077.878 4.153 1.758 6.228 2.64 3.18 1.352 6.363 2.694 9.546 4.036 2.019.854 4.037 1.71 6.055 2.565l2.888 1.218 2.68 1.143 2.358 1C52 331 52 331 55 333c.372 2.598.372 2.598.367 5.967l.017 3.873-.028 4.29c.014 5.649.007 11.299-.02 16.948-.014 4.434-.012 8.868-.012 13.302-.004 8.627-.024 17.255-.05 25.882-.02 6.969-.033 13.938-.042 20.907l-.004 2.99-.003 2.996C55.131 503.772 54.666 577.386 54 651a41294.88 41294.88 0 0 1-15.01 6.44C2.734 673 2.734 673 0 673c.117-46.411.241-92.822.372-139.233l.009-2.966c.043-15.776.084-31.552.124-47.328.04-16.227.085-32.454.132-48.681.029-9.987.055-19.974.078-29.96.016-6.879.036-13.757.058-20.636.012-3.95.023-7.898.03-11.848A1750.25 1750.25 0 0 1 2 311ZM331 0h362c-1.125 6.75-1.125 6.75-2.626 10.242l-1.002 2.357-1.083 2.49-1.118 2.615c-1.176 2.747-2.36 5.49-3.546 8.233-.79 1.84-1.579 3.681-2.367 5.522-1.747 4.076-3.5 8.15-5.259 12.221-1.337 3.105-2.667 6.213-3.999 9.32H353C331 2.23 331 2.23 331 0Zm-15 90c2.746 1.373 2.93 2.798 4.079 5.624l1.223 2.984 1.303 3.251 1.344 3.323c.938 2.326 1.871 4.653 2.802 6.981a1789.99 1789.99 0 0 0 4.325 10.673 5623.67 5623.67 0 0 1 2.717 6.773l1.322 3.227 1.194 3.022 1.065 2.65c.738 2.937.558 4.622-.374 7.492-1.167 1.655-1.167 1.655-2.649 3.119-.554.557-1.11 1.115-1.68 1.69l-1.831 1.777-1.889 1.879c-1.995 1.98-4.004 3.944-6.014 5.91l-3.974 3.945c-1.29 1.277-2.581 2.553-3.873 3.828l-1.788 1.766c-2.85 2.787-5.74 5.48-8.781 8.06-5.733 5.002-11.046 10.427-16.41 15.817l-3.54 3.545c-2.528 2.532-5.055 5.065-7.581 7.599-4 4.013-8.002 8.021-12.006 12.03A61351.939 61351.939 0 0 0 239.5 242.5a65043.29 65043.29 0 0 1-27.52 27.573c-3.974 3.98-7.945 7.96-11.915 11.944a8694.483 8694.483 0 0 1-7.432 7.445l-3.425 3.435c-5.368 5.394-10.733 10.738-16.543 15.663-2.866 2.479-5.51 5.178-8.165 7.878l-1.625 1.638A1792.163 1792.163 0 0 0 159 322c-6.547-2.074-12.882-4.507-19.215-7.16l-2.84-1.184c-1.962-.819-3.924-1.64-5.886-2.463-3.01-1.261-6.024-2.513-9.038-3.765l-5.736-2.4-2.733-1.134-2.52-1.062-2.22-.928C107 301 107 301 105 299c9.638-9.66 19.278-19.319 28.922-28.974 4.478-4.483 8.956-8.968 13.431-13.454 4.323-4.334 8.648-8.665 12.974-12.994 1.647-1.649 3.293-3.298 4.937-4.948 2.312-2.319 4.627-4.635 6.943-6.95l2.038-2.05c3.082-3.075 6.197-6.047 9.505-8.879 5.626-4.862 10.805-10.183 16.047-15.45l3.511-3.516c2.507-2.51 5.013-5.022 7.517-7.535 3.965-3.979 7.935-7.954 11.904-11.928A60319.5 60319.5 0 0 0 248 157c9.094-9.116 18.189-18.232 27.289-27.342 3.94-3.946 7.879-7.894 11.815-11.844 2.455-2.462 4.912-4.922 7.37-7.382 1.133-1.135 2.264-2.27 3.395-3.407 5.863-5.89 11.758-11.68 18.131-17.025Zm612 273v298c-18.44-6.146-36.094-14.44-54-22V385c27.05-11.76 27.05-11.76 38.813-16.625l3.826-1.598 3.63-1.504 3.207-1.33C926 363 926 363 928 363ZM704 104c3.156 1.398 5.29 3.039 7.725 5.473l2.21 2.194 2.405 2.419 2.571 2.562c2.355 2.348 4.705 4.7 7.054 7.055 2.533 2.538 5.072 5.07 7.611 7.604 4.971 4.962 9.938 9.93 14.902 14.9 5.777 5.783 11.557 11.563 17.34 17.34a63390.62 63390.62 0 0 1 32.793 32.805c9.385 9.394 18.775 18.782 28.169 28.167a58736.964 58736.964 0 0 1 36.174 36.167l1.73 1.732c4.033 4.034 8.067 8.065 12.103 12.096 4.913 4.908 9.823 9.82 14.728 14.735 2.505 2.51 5.011 5.019 7.522 7.523 2.716 2.709 5.424 5.425 8.131 8.142l2.433 2.42 2.177 2.193 1.9 1.9C915 313 915 313 915 315l-21.432 8.787-5.274 2.162c-1.72.706-3.442 1.41-5.164 2.112-3.662 1.498-7.315 3.006-10.933 4.61l-3.213 1.411-2.68 1.214c-2.685.82-3.687.623-6.304-.296-1.633-1.252-1.633-1.252-3.26-2.87l-1.894-1.864-2.053-2.065-2.203-2.18c-2.443-2.422-4.876-4.855-7.308-7.287a7730.188 7730.188 0 0 1-19.462-19.379 9258.602 9258.602 0 0 0-8.875-8.852c-8.191-8.165-16.38-16.331-24.56-24.508l-1.585-1.586-3.183-3.182-1.596-1.595-1.598-1.598a12923.39 12923.39 0 0 0-25.696-25.605c-8.802-8.749-17.59-17.51-26.365-26.286a5152.39 5152.39 0 0 0-14.81-14.76 3034.92 3034.92 0 0 1-13.905-13.89 984.845 984.845 0 0 0-5.125-5.096 860.847 860.847 0 0 1-6.95-6.963l-2.087-2.032c-1.699-1.742-3.199-3.337-4.485-5.402.043-3.325.043-3.325 1-6l.745-2.23.881-2.104 1.002-2.417 1.083-2.558 1.118-2.681c1.176-2.819 2.36-5.633 3.546-8.447l2.367-5.667A2284.483 2284.483 0 0 1 704 104ZM364 78h297c-.72 3.6-1.352 6.164-2.734 9.436l-1.072 2.558-1.159 2.725-1.192 2.835a4866.088 4866.088 0 0 1-3.78 8.946c-1.258 2.982-2.514 5.964-3.77 8.946a4808.349 4808.349 0 0 1-3.43 8.118l-.946 2.236c-.996 2.39-1.955 4.796-2.917 7.2H385c-21-49.737-21-49.737-21-53ZM220 633c5.438 4.537 10.487 9.344 15.486 14.357l2.482 2.476c2.69 2.686 5.377 5.376 8.063 8.065l5.637 5.634c3.932 3.93 7.863 7.863 11.791 11.797 4.525 4.53 9.054 9.057 13.584 13.582 3.907 3.902 7.812 7.807 11.715 11.713 2.324 2.325 4.648 4.649 6.974 6.972 2.596 2.594 5.19 5.19 7.782 7.788l2.299 2.293a238.028 238.028 0 0 1 11.66 12.571c1.859 2.133 3.807 4.152 5.81 6.148l2.304 2.304 2.41 2.394 2.525 2.521a9806.84 9806.84 0 0 0 7.915 7.885l5.397 5.383c4.386 4.375 8.775 8.747 13.166 13.117-1.847 6.551-4.014 12.821-6.688 19.078l-1.041 2.47c-.72 1.705-1.443 3.41-2.168 5.112a2423.941 2423.941 0 0 0-3.298 7.793l-2.117 5-.986 2.33c-1.768 4.148-3.637 8.206-5.702 12.217-6.052-5.013-11.59-10.448-17.139-16.01l-3.013-3.007a7782.89 7782.89 0 0 1-8.126-8.127c-2.845-2.847-5.692-5.691-8.538-8.537-4.78-4.777-9.558-9.557-14.334-14.339a25752.05 25752.05 0 0 0-16.528-16.526c-4.748-4.743-9.494-9.488-14.238-14.235a11304.96 11304.96 0 0 0-8.483-8.481c-2.661-2.659-5.321-5.32-7.978-7.984-1.43-1.43-2.861-2.86-4.293-4.289-4.427-4.441-8.702-8.942-12.789-13.698-2.237-2.565-4.607-4.953-7.017-7.357l-1.51-1.51a3163.711 3163.711 0 0 0-4.854-4.838c-4.091-4.088-8.185-8.172-12.282-12.253-3.032-3.022-6.061-6.046-9.09-9.07A27041.76 27041.76 0 0 0 167 656c1.342-2.684 2.585-2.834 5.349-3.94l2.802-1.132 3.052-1.21 3.121-1.254c3.306-1.328 6.616-2.646 9.926-3.964l6.652-2.668c4.904-1.967 9.81-3.928 14.72-5.884 2.46-.98 4.919-1.964 7.378-2.948Zm130-467c2.706 2.365 3.862 4.606 5.177 7.93l1.212 3.033 1.279 3.267 1.332 3.35c1.403 3.533 2.796 7.07 4.188 10.607A7678.44 7678.44 0 0 1 373 219c-4.676 5.615-9.664 10.81-14.836 15.969l-2.54 2.543a4408.925 4408.925 0 0 1-5.3 5.294c-2.687 2.682-5.37 5.37-8.05 8.057l-5.172 5.168-2.403 2.41-2.306 2.295-1.99 1.989c-2.006 1.9-4.048 3.707-6.139 5.51-4.487 3.905-8.689 8.056-12.883 12.27l-2.486 2.486c-2.685 2.688-5.369 5.377-8.051 8.068a22322.616 22322.616 0 0 0-18.832 18.858A35697.96 35697.96 0 0 1 266.95 325 75381.636 75381.636 0 0 0 236 356c-1.413-.464-2.826-.93-4.239-1.397l-2.384-.785c-3.67-1.263-7.238-2.746-10.814-4.252l-2.319-.967c-1.604-.67-3.207-1.341-4.81-2.014-2.427-1.02-4.856-2.034-7.286-3.048-7.418-3.1-14.822-6.222-22.148-9.537 1.35-3.014 2.856-5.103 5.195-7.426l1.922-1.916 2.008-1.97 1.938-1.936c3.026-2.999 6.092-5.884 9.335-8.647 5.757-5.033 11.1-10.48 16.49-15.896l3.542-3.545c2.528-2.532 5.055-5.065 7.58-7.599 4-4.013 8.002-8.021 12.006-12.03 8.497-8.508 16.99-17.021 25.484-25.535 9.171-9.193 18.343-18.386 27.52-27.573 3.974-3.98 7.945-7.96 11.915-11.944 2.476-2.483 4.954-4.964 7.432-7.445l3.425-3.435c5.408-5.434 10.82-10.81 16.662-15.783 1.883-1.607 3.648-3.308 5.39-5.066l1.836-1.846 1.82-1.846 1.914-1.927c1.531-1.543 3.059-3.089 4.586-4.635ZM157 373c6.75 1.125 6.75 1.125 10.226 2.61l2.347.993 2.482 1.073 2.607 1.11c1.815.775 3.629 1.552 5.441 2.333 2.753 1.185 5.51 2.361 8.268 3.535l5.309 2.272 2.469 1.055c5.043 2.175 9.96 4.52 14.851 7.019.033 15.226.055 30.451.065 45.677.025 35.298-.173 70.59-.565 105.885l-.036 3.264c-.146 13.058-.3 26.116-.464 39.174l-1.585.663c-10.442 4.368-20.884 8.737-31.325 13.107l-2.74 1.146-2.608 1.091-2.459 1.026a237.15 237.15 0 0 0-4.36 1.897C162.08 609.2 160.157 610 157 610V373Zm237-217h238c-3.376 10.127-3.376 10.127-4.977 13.953l-1.082 2.597-1.136 2.7-1.191 2.846c-.824 1.967-1.649 3.934-2.476 5.9a4815.384 4815.384 0 0 0-3.798 9.07l-2.41 5.746-1.15 2.75-1.062 2.52-.935 2.226C611 208 611 208 610 209c-2.504.098-4.98.13-7.485.12l-2.403.003c-2.678.002-5.356-.004-8.034-.01l-5.734.001c-5.207 0-10.413-.006-15.62-.013-5.434-.006-10.869-.006-16.303-.008-10.3-.003-20.598-.011-30.897-.021a68705.94 68705.94 0 0 0-35.165-.022c-24.12-.01-48.24-.028-72.359-.05a7560.696 7560.696 0 0 1-3.3-7.032l-.93-1.977c-3.216-6.87-6.137-13.852-9.02-20.866a2990.2 2990.2 0 0 0-1.563-3.758c-2.651-6.424-4.981-12.75-7.187-19.367ZM189 824c3.278 1.436 5.453 3.202 7.978 5.724l2.366 2.349 2.568 2.58 2.726 2.716c2.465 2.456 4.925 4.919 7.382 7.383 2.577 2.582 5.16 5.16 7.74 7.737 4.338 4.334 8.67 8.671 13.001 13.011 4.996 5.007 10 10.007 15.006 15.003 4.306 4.296 8.607 8.596 12.905 12.9 2.564 2.567 5.13 5.132 7.698 7.695 2.867 2.863 5.73 5.73 8.589 8.602l2.561 2.55c4.292 4.322 8.381 8.481 11.48 13.75-.01 2.324-.01 2.324-.914 4.384l-.983 2.378-1.158 2.504-1.129 2.648a538.185 538.185 0 0 1-3.691 8.336c-.803 1.849-1.602 3.7-2.398 5.55A1077.286 1077.286 0 0 1 274 967l-.888 1.973c-1.36 3.015-2.728 6.024-4.112 9.027-2.836-1.29-4.893-2.643-7.091-4.844-.585-.58-1.17-1.16-1.771-1.758l-1.907-1.924-2.036-2.03c-2.221-2.22-4.438-4.443-6.652-6.67l-4.64-4.643a7451.224 7451.224 0 0 1-9.727-9.75 8578.71 8578.71 0 0 0-12.428-12.447c-3.197-3.198-6.393-6.399-9.587-9.6-1.526-1.53-3.052-3.058-4.58-4.586a4880.146 4880.146 0 0 1-6.424-6.446l-1.888-1.887c-3.723-3.75-7.245-7.626-10.702-11.622-1.846-2.112-3.772-4.118-5.758-6.098l-2.243-2.243-2.343-2.327-2.459-2.454c-2.565-2.56-5.133-5.115-7.702-7.671l-5.251-5.238c-4.268-4.257-8.538-8.51-12.811-12.762 3.336-7.006 9.717-11.823 15.523-16.809 4.122-3.646 8.11-7.437 12.11-11.217 3.349-3.15 6.72-6.164 10.367-8.974Zm763-296h54v165c-3.67-.734-6.29-1.407-9.635-2.826l-2.69-1.133-2.866-1.225-2.977-1.259c-2.073-.878-4.145-1.758-6.216-2.64-3.169-1.35-6.34-2.694-9.512-4.036l-6.045-2.565-2.873-1.218-2.68-1.143-2.35-1c-2.081-.922-4.12-1.937-6.156-2.955V528ZM283 12l3 1a80.514 80.514 0 0 1 3.145 7.227l.885 2.242c.938 2.381 1.86 4.768 2.783 7.156.608 1.555 1.219 3.11 1.83 4.664.907 2.31 1.812 4.62 2.707 6.935 1.44 3.722 2.91 7.423 4.472 11.095l.863 2.057a735.01 735.01 0 0 0 2.353 5.5c1.035 3.361 1.19 4.859-.038 8.124-1.547 2.017-1.547 2.017-3.535 3.96l-2.205 2.18-2.322 2.235-2.24 2.21c-3.376 3.308-6.8 6.511-10.381 9.594-4.108 3.59-7.99 7.358-11.835 11.225l-2.131 2.131c-2.297 2.297-4.59 4.598-6.882 6.899l-4.809 4.812c-4.197 4.202-8.392 8.406-12.586 12.611-4.288 4.299-8.58 8.595-12.87 12.891A60005.351 60005.351 0 0 0 208 164c-4.008-1.85-6.762-4.49-9.832-7.602l-1.681-1.682a1301.79 1301.79 0 0 1-3.513-3.536 1483.556 1483.556 0 0 0-5.312-5.332c-4.73-4.743-9.448-9.506-13.986-14.434-.53-.575-1.062-1.15-1.608-1.744C171 128 171 128 171 124c1.75-2.241 1.75-2.241 4.252-4.733l1.386-1.396a672.117 672.117 0 0 1 4.643-4.606c4.098-4.109 8.21-8.204 12.335-12.286 3.146-3.122 6.281-6.254 9.417-9.386 5.942-5.93 11.894-11.848 17.85-17.764 6.779-6.734 13.547-13.48 20.314-20.227A35109.06 35109.06 0 0 1 283 12Zm230 939c17.941-.068 35.882-.123 53.823-.155 8.33-.016 16.66-.037 24.99-.071 7.26-.03 14.519-.05 21.778-.056 3.845-.004 7.69-.013 11.535-.035 3.617-.02 7.234-.027 10.851-.022 1.964-.002 3.928-.018 5.892-.034l3.531.012 3.076-.008c2.925.428 3.765 1.047 5.524 3.369 1.075 2.073 1.075 2.073 2.069 4.484l1.142 2.741 1.203 2.955 1.258 3.045c.876 2.125 1.748 4.252 2.617 6.38a2374.22 2374.22 0 0 0 4.016 9.75l2.547 6.2 1.215 2.942 1.123 2.76.989 2.416C673 1000 673 1000 674 1005H513v-54ZM141.14 155.19c2.384 1.038 3.789 2.379 5.619 4.228l2.183 2.184 2.324 2.37 2.404 2.418c2.534 2.55 5.057 5.111 7.58 7.672 1.715 1.731 3.431 3.461 5.148 5.19 4.209 4.241 8.409 8.491 12.602 12.748-.933 1.1-1.868 2.197-2.803 3.295l-1.577 1.853c-2.543 2.907-5.255 5.632-7.995 8.352l-1.594 1.605a158.188 158.188 0 0 1-8.791 8.148c-4.011 3.497-7.772 7.183-11.495 10.983l-4.196 4.255-2.206 2.243c-3.885 3.947-7.787 7.879-11.685 11.813a5239.835 5239.835 0 0 0-14.813 15.006 2815.031 2815.031 0 0 1-12.03 12.162 951.376 951.376 0 0 0-4.567 4.641 844.672 844.672 0 0 1-6.382 6.443l-1.89 1.96c-1.602 1.583-3.094 3.006-4.976 4.241-2.693-.024-2.693-.024-5-1l-1.925-.656-1.849-.755-2.126-.861-2.26-.931-2.381-.969c-2.509-1.022-5.015-2.05-7.522-3.078l-4.974-2.027A2861.3 2861.3 0 0 1 28 268c.455-4.358 2.972-6.067 6.166-8.848 6.269-5.6 12.233-11.466 18.15-17.434l1.425-1.436a8862.71 8862.71 0 0 0 7.475-7.545c3.186-3.22 6.378-6.432 9.571-9.643l3.3-3.318 1.665-1.675c7.414-7.456 14.823-14.918 22.217-22.393a5687.6 5687.6 0 0 1 15.087-15.194 1940.64 1940.64 0 0 0 7.954-8.023c2.933-2.977 5.884-5.934 8.838-8.89l2.643-2.703 2.433-2.417c.695-.7 1.39-1.4 2.105-2.123C139 155 139 155 141.14 155.19ZM69 701c2.028 1.66 2.028 1.66 4.198 3.842l2.48 2.47 2.654 2.692 2.758 2.763c1.928 1.933 3.852 3.871 5.772 5.813 2.44 2.47 4.89 4.93 7.342 7.386 2.358 2.364 4.712 4.732 7.066 7.1l2.636 2.65c3.635 3.677 7.214 7.36 10.585 11.282 4.218 4.897 8.799 9.416 13.38 13.97l2.795 2.791c2.426 2.422 4.855 4.842 7.284 7.26 2.49 2.479 4.976 4.96 7.462 7.442 4.86 4.85 9.723 9.695 14.588 14.539-1.791 3.898-4.268 6.368-7.438 9.188l-1.62 1.464c-4.26 3.818-8.67 7.428-13.133 11.004-3.73 3.113-7.264 6.42-10.75 9.803-4.556 4.313-4.556 4.313-8.059 4.541-2.037-1.416-2.037-1.416-4.237-3.622l-2.54-2.51-2.762-2.807a1593.044 1593.044 0 0 1-10.862-10.889c-2.765-2.789-5.543-5.564-8.32-8.341a5817.8 5817.8 0 0 1-13.976-14.04 6461.025 6461.025 0 0 0-16.127-16.19c-5.74-5.745-11.475-11.496-17.204-17.252a6592.261 6592.261 0 0 0-4.94-4.953c-2.6-2.606-5.195-5.217-7.786-7.833a1683.146 1683.146 0 0 0-4.198-4.21C21.257 731.504 16.89 726.604 13 721c6.12-2.51 12.239-5.019 18.36-7.526l6.238-2.557c2.998-1.23 5.997-2.458 8.996-3.687l2.791-1.146a900.19 900.19 0 0 1 5.208-2.113 316.602 316.602 0 0 0 4.691-1.936c6.092-2.482 6.092-2.482 9.716-1.035Zm265 250h133v54c-38.029.09-76.037-.05-114.063-.5l-3.092-.04c-12.615-.15-25.23-.3-37.845-.46 6.343-17.118 6.343-17.118 9.832-25.148l.976-2.272a3036.6 3036.6 0 0 1 3.005-6.955l2.06-4.79c4.91-11.402 4.91-11.402 6.127-13.835Zm672-620v151h-54V353c7.558-3.488 15.04-6.94 22.73-10.086l2.554-1.05c1.749-.72 3.499-1.437 5.25-2.153 2.689-1.1 5.375-2.208 8.062-3.316 1.711-.703 3.423-1.405 5.134-2.106l2.43-1.003c5.61-2.286 5.61-2.286 7.84-2.286ZM79 343c3.502.7 5.941 1.26 9.097 2.61l2.337.993c1.232.53 1.232.53 2.488 1.073l2.604 1.11c2.743 1.171 5.484 2.349 8.224 3.527l5.484 2.341c3.385 1.447 6.77 2.894 10.152 4.347l2.047.88c3.865 1.685 7.714 3.407 11.567 5.119v109H79V343Zm167 428c2.903 1.316 4.993 2.736 7.26 4.971l1.881 1.844 2.03 2.018 2.164 2.13a2326.5 2326.5 0 0 1 7.06 6.99l2.433 2.412c4.245 4.21 8.484 8.425 12.718 12.645 4.38 4.365 8.783 8.708 13.19 13.047 3.38 3.336 6.745 6.687 10.105 10.042a919.54 919.54 0 0 0 4.868 4.808 796.567 796.567 0 0 1 6.767 6.742l2.06 1.994c4.462 4.553 4.462 4.553 4.473 8.546L322 852l-.745 2.23-.881 2.104-1.002 2.417-1.083 2.558-1.118 2.681a2597.817 2597.817 0 0 1-3.546 8.447l-2.367 5.667A2284.483 2284.483 0 0 1 302 900c-4.253-.48-5.886-2.766-8.603-5.91-4.795-5.413-9.784-10.591-14.898-15.704l-2.358-2.36a8810.589 8810.589 0 0 0-7.496-7.48l-5.267-5.261c-4.583-4.58-9.168-9.155-13.755-13.73-4.694-4.685-9.386-9.372-14.078-14.059A71406.361 71406.361 0 0 0 208 808c1.618-3.448 3.285-5.376 6.188-7.875 4.494-3.943 8.89-7.97 13.25-12.063A1348.456 1348.456 0 0 1 246 771Zm267 102h107c4.502 9.004 4.502 9.004 5.999 12.593l1.02 2.436 1.055 2.545 1.12 2.688c.773 1.86 1.545 3.722 2.316 5.584 1.18 2.846 2.367 5.688 3.554 8.531l2.26 5.447 1.073 2.564.992 2.408.872 2.1C641 922 641 922 642 927H513v-54Zm232.075-86.764c2.595 1.03 4.049 2.533 6.007 4.518l2.326 2.342 2.404 2.466 2.37 2.385a267.68 267.68 0 0 1 12.24 13.256c2.236 2.546 4.602 4.917 7.015 7.297l2.622 2.594L782 823c-1.415 3.211-3.11 5.36-5.588 7.831l-2.227 2.236-2.412 2.39-2.49 2.488a2854.044 2854.044 0 0 1-5.23 5.208 3120.248 3120.248 0 0 0-7.94 7.92l-5.09 5.072-2.374 2.37c-3.447 3.418-6.911 6.76-10.594 9.922-4.903 4.227-9.408 8.83-13.953 13.434l-4.199 4.226c-3.42 3.444-6.835 6.891-10.247 10.343-1.93 1.95-3.861 3.899-5.796 5.844a1563.55 1563.55 0 0 0-5.435 5.492l-2.47 2.48-2.174 2.197C692 914 692 914 690 914c-2.714-6.686-5.427-13.373-8.139-20.06l-1.002-2.47-1-2.462c-.66-1.631-1.32-3.264-1.976-4.897a484.91 484.91 0 0 0-4.784-11.532l-.88-2.077a688.138 688.138 0 0 0-2.379-5.513c-.84-2.989-.84-2.989-.077-4.974 1.242-2.023 2.516-3.553 4.184-5.236l1.827-1.857 1.999-2.001c.696-.705 1.392-1.41 2.11-2.135 2.303-2.325 4.61-4.646 6.922-6.962l4.805-4.833c3.357-3.373 6.719-6.743 10.083-10.11 4.319-4.323 8.62-8.663 12.92-13.007 3.3-3.331 6.613-6.651 9.928-9.968 1.592-1.596 3.18-3.196 4.763-4.8 2.21-2.236 4.435-4.457 6.664-6.674l1.987-2.032 1.844-1.814 1.59-1.596c1.611-.99 1.611-.99 3.686-.754ZM848 682c6.637 2.106 13.07 4.574 19.504 7.23l2.92 1.198c3.048 1.25 6.093 2.505 9.139 3.76l6.236 2.56c5.068 2.08 10.135 4.165 15.201 6.252 0 3 0 3-1.39 4.76l-1.989 1.98-2.27 2.281-2.52 2.49-2.631 2.631a2538.58 2538.58 0 0 1-7.172 7.134c-2.5 2.48-4.99 4.97-7.483 7.46a9441.323 9441.323 0 0 1-14.184 14.12 13592.245 13592.245 0 0 0-16.142 16.076A28768.779 28768.779 0 0 1 812 795c-4.016-1.851-6.741-4.502-9.797-7.637l-1.674-1.69c-1.763-1.783-3.523-3.57-5.279-5.36a3268.999 3268.999 0 0 0-6.922-7.012l-1.674-1.698c-3.585-3.61-7.277-6.991-11.272-10.15-1.774-1.865-2.323-2.862-2.382-5.453 1.595-2.179 1.595-2.179 3.996-4.52.87-.857 1.739-1.715 2.635-2.6 1.39-1.332 1.39-1.332 2.806-2.693l2.702-2.658c3.744-3.662 7.517-7.243 11.494-10.651 5.39-4.694 10.392-9.778 15.43-14.843l3.126-3.131c2.718-2.722 5.434-5.446 8.148-8.172 2.78-2.79 5.564-5.579 8.347-8.367 5.441-5.452 10.88-10.907 16.316-16.365Zm-701-13c2.38 1.822 4.437 3.922 6.531 6.061l1.924 1.917a1284.63 1284.63 0 0 1 6.26 6.311c1.457 1.462 2.915 2.924 4.374 4.385 3.059 3.066 6.11 6.138 9.157 9.215 3.893 3.933 7.796 7.854 11.704 11.772 4.453 4.465 8.901 8.934 13.346 13.407 2.017 2.029 4.03 4.061 6.044 6.095l1.78 1.789c3.816 3.865 7.398 7.88 10.88 12.048-1.92 4.297-4.928 6.747-8.5 9.688-1.278 1.072-2.556 2.144-3.832 3.218l-1.9 1.594c-2.368 2.01-4.664 4.092-6.956 6.188C184.168 775.046 184.168 775.046 178 778c-7.314-7.29-14.625-14.584-21.933-21.881a13939.17 13939.17 0 0 0-10.186-10.162c-3.283-3.273-6.564-6.547-9.842-9.824a3291.635 3291.635 0 0 0-3.743-3.731c-5.79-5.766-11.54-11.502-16.845-17.725-2.27-2.623-4.705-5.043-7.166-7.49l-1.517-1.512c-1.567-1.56-3.135-3.119-4.705-4.675l-3.229-3.215c-2.609-2.598-5.22-5.192-7.834-7.785 2.776-2.226 5.403-3.748 8.69-5.1l2.8-1.162 3.006-1.222 3.108-1.273a2269.59 2269.59 0 0 1 6.504-2.642c3.32-1.347 6.63-2.714 9.94-4.081a4918.93 4918.93 0 0 1 6.323-2.567l3-1.246 2.81-1.124 2.46-1.002c3.023-.745 4.422-.682 7.359.419Zm219 204h101v54c-11.979.031-23.959.053-35.938.065-28.7.026-57.372-.276-86.062-1.065.59-3.346 1.413-6.308 2.734-9.436l1.072-2.558 1.159-2.725 1.192-2.835a4696.34 4696.34 0 0 1 3.78-8.946c1.258-2.982 2.514-5.964 3.77-8.946 1.455-3.453 2.913-6.904 4.376-10.354.996-2.39 1.955-4.796 2.917-7.2ZM79 521h53v98c-27.05 11.76-27.05 11.76-38.813 16.625l-3.826 1.598-3.63 1.504-3.207 1.33C80 641 80 641 78 641l1-120Zm687-246c4.845 4.039 9.408 8.267 13.853 12.74l1.954 1.953c2.107 2.108 4.21 4.22 6.314 6.33l4.41 4.414c3.85 3.854 7.698 7.712 11.545 11.57 3.933 3.944 7.869 7.884 11.805 11.825 7.709 7.72 15.415 15.443 23.119 23.168-1 3-1 3-2.954 4.113l-2.594 1.048-2.934 1.203-3.194 1.269-3.263 1.325c-3.453 1.4-6.913 2.783-10.373 4.167-2.323.94-4.645 1.882-6.967 2.824-2.215.896-4.43 1.79-6.647 2.684l-3.176 1.281-2.962 1.184-2.601 1.043L789 370l-1.946.94c-2.054.06-2.054.06-4.744-1.995a180.982 180.982 0 0 1-3.104-3.092l-1.721-1.695a739.828 739.828 0 0 1-5.598-5.607 4743.775 4743.775 0 0 0-3.891-3.877c-2.72-2.712-5.43-5.432-8.133-8.16-3.471-3.5-6.965-6.976-10.466-10.447-2.681-2.666-5.355-5.34-8.021-8.022-1.284-1.287-2.572-2.57-3.863-3.85a666.293 666.293 0 0 1-5.366-5.4l-1.635-1.605c-1.457-1.5-1.457-1.5-3.512-4.19.107-2.756.686-3.63 2.455-5.72l1.861-1.706 2.069-1.916 2.178-1.97c.691-.64 1.383-1.278 2.095-1.936 4.094-3.766 8.261-7.441 12.456-11.094 3.338-2.935 6.585-5.97 9.835-9.002 3.837-3.549 3.837-3.549 6.051-4.656Zm30 253h54v103c-6.75-1.125-6.75-1.125-10.226-2.61l-2.347-.993-2.482-1.073-2.607-1.11c-1.815-.775-3.629-1.552-5.441-2.333-2.753-1.185-5.51-2.361-8.268-3.535l-5.309-2.272-2.469-1.055-2.366-1.02-2.045-.88c-3.523-1.616-6.973-3.386-10.44-5.119v-81ZM691.235 730.133c1.962.964 3.223 1.967 4.753 3.527l1.629 1.642 1.695 1.76 1.774 1.808c2.855 2.927 5.641 5.887 8.289 9.005a149.35 149.35 0 0 0 7.379 7.945l2.075 2.079c3.05 3.04 6.107 6.074 9.171 9.101a205.536 205.536 0 0 1-12.524 13.67l-1.885 1.894a4404.68 4404.68 0 0 1-6.107 6.12l-4.264 4.274c-2.967 2.973-5.936 5.944-8.907 8.914a7259.513 7259.513 0 0 0-11.426 11.457 6080.811 6080.811 0 0 1-8.791 8.804 2399.747 2399.747 0 0 0-4.215 4.228c-1.954 1.963-3.913 3.92-5.874 5.875l-1.763 1.78C658.228 838 658.228 838 656 838a7707.303 7707.303 0 0 1-11.34-27.028 2771.916 2771.916 0 0 0-3.077-7.339 1256.348 1256.348 0 0 1-3.458-8.32l-1.027-2.421c-2.584-6.346-2.584-6.346-1.098-9.892 2.105-2.5 2.105-2.5 4.915-5.335.51-.52 1.022-1.038 1.548-1.573 1.69-1.71 3.386-3.414 5.088-5.112l3.532-3.554c2.467-2.481 4.94-4.956 7.417-7.427 3.178-3.172 6.337-6.362 9.492-9.557 2.425-2.451 4.862-4.89 7.302-7.327a727.232 727.232 0 0 0 3.498-3.528 566.389 566.389 0 0 1 4.905-4.899l2.817-2.823C689 730 689 730 691.235 730.133ZM771 648c6.368 2.026 12.543 4.366 18.707 6.941l2.69 1.117c1.86.772 3.72 1.546 5.58 2.322 4.661 1.935 9.321 3.873 13.98 5.812l2.57 1.066 2.398 1.002 2.098.874c2.03.89 4.004 1.858 5.977 2.866-1.615 4.042-4.48 6.754-7.516 9.759l-1.706 1.712c-1.861 1.865-3.73 3.722-5.598 5.58l-3.903 3.9a5263.58 5263.58 0 0 1-8.196 8.174 5708.908 5708.908 0 0 0-10.45 10.43c-2.688 2.688-5.38 5.373-8.071 8.058-1.284 1.28-2.566 2.561-3.849 3.843-12.835 12.82-12.835 12.82-19.711 18.544-3.107-1.483-5.2-2.973-7.61-5.45l-2.038-2.071-2.102-2.167c-4.642-4.761-9.337-9.334-14.38-13.671-2.745-2.409-5.312-4.974-7.87-7.579l-1.48-1.494A1480.306 1480.306 0 0 1 717 704c1.588-3.865 4.06-6.3 7-9.228l1.538-1.538c1.673-1.671 3.353-3.336 5.032-5l3.49-3.48a4942.62 4942.62 0 0 1 9.183-9.134c3.127-3.107 6.248-6.219 9.37-9.33A15096.7 15096.7 0 0 1 771 648ZM513 795h77c22 51.333 22 51.333 22 54h-99v-54Zm158-615a196.562 196.562 0 0 1 13.486 12.373l1.836 1.835c1.977 1.978 3.95 3.959 5.924 5.94l4.14 4.145c3.613 3.618 7.225 7.238 10.835 10.86A55591.616 55591.616 0 0 1 740 248c-1.105 3.315-1.876 3.97-4.5 6.125a133.401 133.401 0 0 0-9 8.375c-3.335 3.38-6.775 6.524-10.39 9.598-3.432 3.095-6.56 6.489-9.715 9.863-2.649 2.255-3.91 3.131-7.395 3.039-2.43-1.809-2.43-1.809-4.875-4.438l-2.43-2.558a231.98 231.98 0 0 1-4.212-4.766c-4.267-4.956-8.745-9.632-13.385-14.238l-2.19-2.185c-2.28-2.274-4.562-4.545-6.846-6.815l-4.673-4.66c-3.794-3.783-7.59-7.563-11.389-11.34 1.978-6.18 4.213-12.201 6.688-18.2l1.041-2.54c.722-1.758 1.444-3.515 2.168-5.272 1.104-2.677 2.201-5.357 3.298-8.037l2.117-5.15.986-2.406c1.744-4.223 3.598-8.334 5.702-12.395ZM396 795h71v54c-21.761.04-21.761.04-31.037.049-6.33.006-12.659.013-18.988.026-5.103.011-10.206.017-15.309.02-1.946.002-3.893.005-5.84.01-2.727.008-5.454.009-8.18.009l-2.44.01c-3.86-.007-7.453-.18-11.206-1.124 1.999-6.313 4.331-12.405 6.941-18.488l1.117-2.623a2610.74 2610.74 0 0 1 2.322-5.438c1.186-2.772 2.367-5.546 3.548-8.32l2.263-5.307 1.067-2.503 1.002-2.338.874-2.044c.896-2.007 1.883-3.973 2.866-5.939Zm454-402v89h-54v-67l25.905-10.739 2.53-1.049 5.087-2.108c3.82-1.58 7.637-3.17 11.449-4.77l3.295-1.385 2.758-1.165C849 393 849 393 850 393Z"/></svg>